<svg width="69" height="68" viewBox="0 0 69 68" fill="none" xmlns="http://www.w3.org/2000/svg">
<g clip-path="url(#clip0_14_224)">
<path d="M49.8489 33.0097L37.9 25.84V20.4H43C43.9393 20.4 44.7 19.6392 44.7 18.7V15.3C44.7 14.3607 43.9393 13.6 43 13.6H37.9V8.49999C37.9 7.56074 37.1393 6.79999 36.2 6.79999H32.8C31.8608 6.79999 31.1 7.56074 31.1 8.49999V13.6H26C25.0608 13.6 24.3 14.3607 24.3 15.3V18.7C24.3 19.6392 25.0608 20.4 26 20.4H31.1V25.84L19.1511 33.0097C18.6476 33.3117 18.2308 33.739 17.9415 34.25C17.6521 34.7609 17.5 35.3381 17.5 35.9252V61.2H27.7V51C27.7 47.2441 30.7441 44.2 34.5 44.2C38.2559 44.2 41.3 47.2441 41.3 51V61.2H51.5V35.9252C51.5 34.731 50.8731 33.6239 49.8489 33.0097ZM0.5 48.8707V59.5C0.5 60.4392 1.26075 61.2 2.2 61.2H14.1V40.8L2.56019 45.7449C1.94876 46.0074 1.42772 46.4434 1.06154 46.999C0.695369 47.5546 0.500135 48.2053 0.5 48.8707ZM66.4398 45.7449L54.9 40.8V61.2H66.8C67.7393 61.2 68.5 60.4392 68.5 59.5V48.8707C68.5 47.5107 67.6893 46.2814 66.4398 45.7449Z" fill="url(#paint0_linear_14_224)"/>
</g>
<defs>
<linearGradient id="paint0_linear_14_224" x1="-5.68016" y1="8.29918" x2="60.0276" y2="78.5036" gradientUnits="userSpaceOnUse">
<stop stop-color="#D9AF63"/>
<stop offset="0.53" stop-color="#BF8C4E"/>
<stop offset="1" stop-color="#BF793B"/>
</linearGradient>
<clipPath id="clip0_14_224">
<rect width="68" height="68" fill="white" transform="translate(0.5)"/>
</clipPath>
</defs>
</svg>
