<svg width="74" height="38" viewBox="0 0 74 38" fill="none" xmlns="http://www.w3.org/2000/svg">
<g clip-path="url(#clip0_6_985)">
<path d="M30.1748 32.9248L23.8335 18.9437C23.6296 18.4941 23.2189 17.8099 22.918 17.4186L21.7603 15.9125C21.5123 15.5898 21.4787 15.022 21.687 14.6723C21.7493 14.5676 23.2166 12.0953 23.3334 11.1424C23.445 10.2317 23.5554 8.36114 23.5566 8.34234C23.5826 7.89921 23.8315 7.22637 24.0999 6.87301L25.5551 4.95836C25.8714 4.5422 26.1315 3.86163 26.1474 3.40896C26.1559 3.16605 26.0682 3.02237 25.9932 2.94463C25.897 2.84503 25.7656 2.79236 25.6134 2.79236C25.4661 2.79236 25.3085 2.84081 25.1447 2.9364L17.4297 7.43635C17.2588 7.53609 17.017 7.59328 16.7663 7.59328C16.5156 7.59328 16.2738 7.53609 16.1029 7.43635L8.38792 2.9364C8.22413 2.84081 8.06639 2.79236 7.91922 2.79236C7.76695 2.79236 7.63558 2.84503 7.53941 2.94471C7.46436 3.02244 7.37672 3.16612 7.38517 3.40903C7.40105 3.8617 7.66123 4.54227 7.97743 4.95844L9.43263 6.87308C9.70119 7.22651 9.95022 7.89936 9.97645 8.34248C9.97747 8.36019 10.0822 10.1219 10.1814 10.9988C10.2932 11.9869 11.788 14.558 11.8516 14.6669C12.057 15.019 12.0207 15.5893 11.7723 15.9125L10.6146 17.4184C10.3137 17.81 9.903 18.4942 9.69915 18.9436L3.35778 32.9248C3.23705 33.191 3.24237 33.4594 3.37235 33.661C3.50233 33.8627 3.74451 33.9783 4.03682 33.9783H4.3708C4.81917 33.9783 5.5294 34.1619 5.92166 34.3792L7.27238 35.1274C7.5024 35.2548 7.80534 35.3249 8.12541 35.3249C8.44547 35.3249 8.74849 35.2547 8.97843 35.1274L10.3292 34.3792C10.5035 34.2826 10.7501 34.2273 11.0057 34.2273C11.2613 34.2273 11.5079 34.2827 11.6823 34.3792L13.033 35.1274C13.263 35.2548 13.566 35.3249 13.8861 35.3249C14.2062 35.3249 14.5092 35.2547 14.7391 35.1274L16.0898 34.3792C16.2642 34.2826 16.5107 34.2273 16.7664 34.2273C17.0221 34.2273 17.2686 34.2827 17.443 34.3792L18.7937 35.1274C19.0237 35.2548 19.3266 35.3249 19.6467 35.3249C19.9668 35.3249 20.2698 35.2547 20.4997 35.1274L21.8504 34.3792C22.0248 34.2826 22.2714 34.2273 22.527 34.2273C22.7827 34.2273 23.0292 34.2827 23.2036 34.3792L24.5543 35.1274C24.7843 35.2548 25.0873 35.3249 25.4073 35.3249C25.7274 35.3249 26.0304 35.2547 26.2603 35.1274L27.6111 34.3792C28.0033 34.1619 28.7135 33.9783 29.1619 33.9783H29.4959C29.7882 33.9783 30.0304 33.8627 30.1604 33.661C30.2903 33.4594 30.2955 33.1909 30.1748 32.9248Z" fill="url(#paint0_linear_6_985)"/>
</g>
<g clip-path="url(#clip1_6_985)">
<path d="M73.4807 30.4019L68.7594 9.38516C68.4421 7.97274 67.4969 6.7835 66.1927 6.15505L60.916 3.61414L54.8536 19.1606L48.7904 3.61414L43.5139 6.15505C42.2096 6.7835 41.2645 7.97274 40.9472 9.38516L36.2258 30.4019C36.1305 30.8274 36.3974 31.2493 36.8223 31.3458L40.6925 32.2196C41.1125 32.3143 41.5307 32.0549 41.6334 31.6367L45.1052 17.4198L46.1494 24.3832L44.2818 33.0997C44.2246 33.3671 44.28 33.6457 44.4367 33.8701C44.5923 34.094 44.834 34.244 45.1046 34.2828L53.6347 35.5237L54.8535 32.1385L56.0716 35.5237L64.6018 34.2828C64.8718 34.244 65.114 34.094 65.2697 33.8701C65.4264 33.6457 65.4818 33.3671 65.4246 33.0997L63.5571 24.3832L64.6013 17.4198L68.0731 31.6367C68.1751 32.0549 68.5939 32.3144 69.0139 32.2196L72.8842 31.3458C73.3092 31.2493 73.576 30.8274 73.4807 30.4019ZM54.8536 29.1407C54.4458 29.1407 54.1156 28.8099 54.1156 28.4028C54.1156 27.9951 54.4458 27.6649 54.8536 27.6649C55.2606 27.6649 55.5908 27.9951 55.5908 28.4028C55.5908 28.8099 55.2606 29.1407 54.8536 29.1407ZM54.8536 24.1507C54.4458 24.1507 54.1156 23.8204 54.1156 23.4127C54.1156 23.0057 54.4458 22.6755 54.8536 22.6755C55.2606 22.6755 55.5908 23.0057 55.5908 23.4127C55.5908 23.8205 55.2606 24.1507 54.8536 24.1507Z" fill="url(#paint1_linear_6_985)"/>
<path d="M55.8983 5.18533L56.1301 4.27776L55.7181 2.59351H53.9177L53.5051 4.27776L53.7375 5.18533H55.8983Z" fill="url(#paint2_linear_6_985)"/>
<path d="M56.2999 13.1836L56.0145 6.48718H53.692L53.4067 13.1836L54.8535 16.9543L56.2999 13.1836Z" fill="url(#paint3_linear_6_985)"/>
</g>
<defs>
<linearGradient id="paint0_linear_6_985" x1="0.817852" y1="3.68891" x2="37.9821" y2="30.0438" gradientUnits="userSpaceOnUse">
<stop stop-color="#D9AF63"/>
<stop offset="0.53" stop-color="#BF8C4E"/>
<stop offset="1" stop-color="#BF793B"/>
</linearGradient>
<linearGradient id="paint1_linear_6_985" x1="32.8171" y1="4.49352" x2="71.4439" y2="43.0803" gradientUnits="userSpaceOnUse">
<stop stop-color="#D9AF63"/>
<stop offset="0.53" stop-color="#BF8C4E"/>
<stop offset="1" stop-color="#BF793B"/>
</linearGradient>
<linearGradient id="paint2_linear_6_985" x1="53.2665" y1="2.66493" x2="56.3716" y2="5.35301" gradientUnits="userSpaceOnUse">
<stop stop-color="#D9AF63"/>
<stop offset="0.53" stop-color="#BF8C4E"/>
<stop offset="1" stop-color="#BF793B"/>
</linearGradient>
<linearGradient id="paint3_linear_6_985" x1="53.1437" y1="6.77564" x2="58.8143" y2="8.11539" gradientUnits="userSpaceOnUse">
<stop stop-color="#D9AF63"/>
<stop offset="0.53" stop-color="#BF8C4E"/>
<stop offset="1" stop-color="#BF793B"/>
</linearGradient>
<clipPath id="clip0_6_985">
<rect width="32.5326" height="32.5326" fill="white" transform="translate(0.5 2.79236)"/>
</clipPath>
<clipPath id="clip1_6_985">
<rect width="37.2935" height="37.2935" fill="white" transform="translate(36.2065 0.411865)"/>
</clipPath>
</defs>
</svg>
