<svg width="93" height="122" viewBox="0 0 93 122" fill="none" xmlns="http://www.w3.org/2000/svg">
<g opacity="0.2">
<path d="M9.23385 0.367652C9.27548 0.354631 9.44199 1.15545 9.71777 2.66589C10.004 4.16983 10.3526 6.39643 11.0082 9.13086C11.6638 11.8588 12.7201 15.088 14.5882 18.2717C15.5144 19.8602 16.6435 21.4097 17.9183 22.9527C19.188 24.5023 20.6085 26.0388 22.0551 27.7055C23.5016 29.3722 24.995 31.1756 26.3271 33.3045C27.6747 35.4335 28.7362 37.8879 29.7717 40.375C30.8072 42.862 31.8218 45.4076 33.1643 47.7059C34.486 50.0106 36.2343 51.9052 38.2272 53.5198C40.2202 55.1409 42.416 56.5081 44.6118 58.0446C45.7097 58.8129 46.8077 59.6266 47.8744 60.5446C48.9411 61.4626 49.9505 62.4783 50.9288 63.546C54.8209 67.869 57.9013 73.1751 60.8933 78.3445L59.3375 79.3927C55.9709 68.5721 52.1151 58.1032 48.0929 48.5653C46.074 43.793 44.1123 39.2226 41.6667 35.5311C39.2315 31.8527 36.2864 29.0531 33.4401 26.6572C30.5835 24.2549 27.8204 22.191 25.4061 20.1597C22.9917 18.1219 20.9363 16.1948 19.2556 14.5021C15.8942 11.1036 13.9794 8.74672 13.5995 8.29749C10.4046 4.46929 8.51059 0.595546 9.01532 0.0681919C9.53566 -0.485205 12.1946 2.39894 15.2854 6.10344C15.6549 6.53965 17.5073 8.85091 20.7594 12.1843C22.3829 13.851 24.3758 15.7456 26.7121 17.7508C29.0536 19.7561 31.7958 21.8394 34.7097 24.333C37.6132 26.8265 40.7249 29.8084 43.3422 33.8319C45.9491 37.8424 47.9264 42.5886 49.9141 47.3934C53.8999 57.0615 57.7088 67.6672 61.0026 78.6114L63.4534 86.7561L59.4468 79.6596C56.5068 74.4447 53.5357 69.2362 49.8621 65.063C48.9411 64.0278 47.9888 63.0447 46.9898 62.1658C45.9907 61.2804 44.9397 60.4795 43.873 59.7113C41.7343 58.1683 39.5229 56.749 37.4571 55.0172C36.4269 54.1513 35.433 53.2073 34.5276 52.1526C33.617 51.0979 32.8053 49.926 32.108 48.689C30.7083 46.2149 29.7041 43.5782 28.705 41.0846C27.706 38.5911 26.7121 36.2082 25.4633 34.1704C24.2249 32.1131 22.7939 30.3227 21.389 28.6365C19.9789 26.9502 18.5792 25.3747 17.3096 23.76C16.0399 22.1519 14.9004 20.5243 13.9794 18.8511C12.1165 15.5177 11.1071 12.1387 10.5191 9.3392C9.93631 6.53316 9.66574 4.28703 9.46801 2.75705C9.27549 1.22707 9.19743 0.406747 9.23906 0.400236L9.23385 0.367652Z" fill="url(#paint0_linear_52_301)"/>
<path d="M9.23387 0.667212C9.23387 0.667212 9.37435 1.12944 9.61891 1.94977C9.87388 2.76359 10.2277 3.942 10.7377 5.32875C11.2424 6.71549 11.898 8.31712 12.7462 9.95777C13.5943 11.5984 14.6402 13.2586 15.811 14.8472C16.9765 16.4423 18.2826 17.9332 19.5886 19.3329C19.9165 19.678 20.2443 20.0231 20.5669 20.3616C20.8999 20.6937 21.2277 21.0192 21.5503 21.3382C22.1956 22.0023 22.82 22.5492 23.4756 23.0505C24.7764 24.0466 26.0357 24.932 26.9827 25.9607C27.4562 26.462 27.8465 27.0024 28.1483 27.4972C28.4501 27.992 28.6738 28.4282 28.8455 28.7863C29.1993 29.4894 29.6364 30.5767 30.2608 31.7551C30.88 32.927 31.8635 34.0924 33.1123 35.1731C34.3507 36.2604 35.8337 37.3151 37.2334 38.6367C38.6383 39.9388 39.986 41.4298 41.2036 42.9988C43.6492 46.1434 45.5016 49.6396 46.636 52.3545C46.9222 53.0316 47.1667 53.6631 47.3749 54.2165C47.5726 54.7829 47.7547 55.2646 47.8848 55.6683C48.145 56.4821 48.2907 56.9379 48.2907 56.9379C48.2907 56.9379 48.1293 56.4886 47.8484 55.6879C47.7027 55.2907 47.5102 54.8154 47.2916 54.262C47.0627 53.7217 46.8025 53.1032 46.4955 52.4456C45.2883 49.8023 43.3422 46.4233 40.8446 43.4415C39.601 41.9441 38.2377 40.5443 36.8275 39.3268C35.4278 38.0964 33.9553 37.1263 32.6336 36.0455C31.9728 35.5052 31.364 34.9322 30.8228 34.3333C30.2869 33.7278 29.829 33.0702 29.4699 32.4452C28.7623 31.1756 28.3252 30.1079 27.987 29.4438C27.6487 28.7667 27.1804 27.8032 26.3427 26.8656C25.5101 25.9086 24.3238 25.0167 23.0125 23.9424C22.3621 23.4086 21.6752 22.7705 21.0612 22.0869C20.7438 21.7484 20.4212 21.4098 20.0934 21.0582C19.776 20.7002 19.4534 20.3356 19.1308 19.971C17.8507 18.4996 16.5655 16.9305 15.4311 15.2573C14.2916 13.5971 13.2821 11.8589 12.4704 10.1661C11.6587 8.47337 11.0499 6.82621 10.5868 5.40691C10.1184 3.98761 9.80103 2.79616 9.57208 1.96932C9.35354 1.13597 9.22866 0.667212 9.22866 0.667212L9.23387 0.667212Z" fill="url(#paint1_linear_52_301)"/>
<path d="M91.198 58.9691C91.198 58.9691 91.0054 58.2269 90.6672 56.9052C90.3238 55.5836 89.8243 53.6955 89.1166 51.4364C88.4037 49.1902 87.4775 46.5665 86.135 43.9492C84.7926 41.3515 82.987 38.7734 80.6662 36.9374C78.3507 35.0949 75.6502 33.9881 73.012 33.1027C70.3687 32.2172 67.767 31.488 65.3682 30.8826C60.5655 29.6781 56.5797 28.8903 54.5555 28.4541C52.5314 28.0114 48.5508 27.2106 43.7376 26.0257C41.3337 25.4202 38.7268 24.6715 36.1094 23.6103C33.4973 22.5491 30.8852 21.1298 28.5333 19.3068C26.1865 17.4839 24.0636 15.4005 22.1019 13.5059C20.1402 11.5983 18.371 9.80144 16.8776 8.25193C13.8961 5.15942 12.0333 3.08255 12.0333 3.08255C12.0333 3.08255 13.9169 5.13335 16.9193 8.1868C18.4231 9.71027 20.2078 11.4811 22.1851 13.3692C24.1624 15.2442 26.2958 17.2951 28.6478 19.079C30.9945 20.8629 33.591 22.2366 36.1979 23.2587C38.8048 24.2874 41.4065 25.0036 43.8053 25.5765C48.6132 26.7028 52.6043 27.4775 54.6232 27.9137C56.6473 28.35 60.6331 29.1703 65.4359 30.4333C67.8346 31.0649 70.4363 31.8266 73.0849 32.7446C75.723 33.6691 78.4444 34.8149 80.7807 36.716C83.1223 38.6041 84.9226 41.2343 86.2495 43.8646C87.5764 46.5079 88.4818 49.1512 89.179 51.4103C89.8659 53.676 90.3498 55.5836 90.6828 56.9052C91.0106 58.2334 91.198 58.9756 91.198 58.9756L91.198 58.9691Z" fill="url(#paint2_linear_52_301)"/>
<path d="M89.7722 58.4286C89.7722 57.6343 90.2874 56.9963 90.917 56.9963C91.5466 56.9963 92.0617 57.6409 92.0617 58.4286C92.0617 59.2164 91.5466 59.861 90.917 59.861C90.2874 59.861 89.7722 59.2164 89.7722 58.4286Z" fill="url(#paint3_linear_52_301)"/>
<path d="M72.346 19.8667C72.346 19.8667 72.2575 19.9188 72.0962 20.01C71.9297 20.0946 71.7008 20.2574 71.3781 20.3941C70.7433 20.6806 69.7911 20.9801 68.6099 21.0256C67.4288 21.0777 66.0343 20.8498 64.5617 20.4071C63.0839 19.9774 61.5281 19.3264 59.9306 18.7014C58.3384 18.0633 56.6889 17.5099 55.0499 17.1519C53.416 16.7873 51.8029 16.5919 50.3199 16.4812C47.354 16.2599 44.898 16.3185 43.6544 16.312C42.4056 16.299 39.9548 16.351 36.968 16.2338C33.9865 16.1297 30.4638 15.7065 27.2116 14.6258C25.5882 14.0919 24.0375 13.4083 22.6586 12.614C21.2797 11.8197 20.1038 10.8822 19.1463 10.0163C18.2045 9.12433 17.4916 8.29749 17.0285 7.69201C16.5706 7.07351 16.3157 6.72194 16.3157 6.72194C16.3157 6.72194 16.5758 7.06702 17.0442 7.6725C17.5177 8.27147 18.2409 9.07877 19.188 9.94467C20.1506 10.7845 21.337 11.6895 22.7159 12.4512C24.0948 13.2129 25.6454 13.864 27.2636 14.3588C30.5054 15.3615 34.0073 15.7195 36.9732 15.7651C39.9444 15.8237 42.4004 15.7456 43.6492 15.7586C44.898 15.7651 47.3592 15.7391 50.3408 16.0125C51.8289 16.1557 53.4524 16.3771 55.0967 16.7742C56.741 17.1649 58.4061 17.7573 59.9931 18.4344C61.5853 19.092 63.1255 19.7691 64.5877 20.2313C66.0447 20.7001 67.4236 20.954 68.5995 20.9345C69.7755 20.9149 70.7277 20.635 71.3625 20.3681C71.6799 20.2379 71.9141 20.0816 72.0858 20.0035C72.2523 19.9123 72.3356 19.8667 72.3356 19.8667L72.346 19.8667Z" fill="url(#paint4_linear_52_301)"/>
<path d="M71.8985 19.4241C71.8985 18.6298 72.4136 17.9918 73.0433 17.9918C73.6729 17.9918 74.188 18.6363 74.188 19.4241C74.188 20.2119 73.6729 20.8564 73.0433 20.8564C72.4136 20.8564 71.8985 20.2119 71.8985 19.4241Z" fill="url(#paint5_linear_52_301)"/>
<path d="M8.65107 11.5201C8.65107 11.5201 8.93206 11.8847 9.43679 12.5358C9.69175 12.8548 9.99355 13.2585 10.3318 13.7337C10.6752 14.2025 11.0602 14.7363 11.4661 15.3418C12.2987 16.5333 13.204 18.0111 14.1615 19.6518C15.0981 21.312 16.0555 23.1545 16.9557 25.1012C17.8455 27.0608 18.6728 29.1181 19.4013 31.169C20.135 33.2133 20.7282 35.2706 21.2329 37.1717C22.2216 40.9934 22.7263 44.2356 23.0333 45.8568C23.1842 46.6706 23.3975 47.8816 23.7201 49.3464C24.0375 50.8113 24.4798 52.5431 25.1511 54.3335C25.8171 56.1239 26.7902 57.9143 28.0234 59.5159C29.241 61.137 30.6251 62.6605 31.801 64.3663C34.1894 67.7518 35.8285 71.5864 36.7495 74.5162C37.2126 75.9876 37.5248 77.2246 37.7121 78.097C37.8994 78.9694 37.9931 79.4642 37.9931 79.4642C37.9931 79.4642 37.8942 78.9694 37.6913 78.1035C37.4884 77.2376 37.1657 76.0071 36.6818 74.5487C35.7244 71.6385 34.0437 67.8624 31.6345 64.5485C30.4482 62.8753 29.0536 61.3844 27.8048 59.7698C26.5404 58.1747 25.5153 56.3453 24.8181 54.5288C24.1156 52.7124 23.6525 50.961 23.3195 49.4831C22.9813 48.0052 22.7627 46.7878 22.6118 45.974C22.2996 44.3398 21.8209 41.1106 20.8843 37.3019C20.4004 35.4074 19.8332 33.3565 19.1307 31.3057C18.4335 29.2549 17.6321 27.191 16.7736 25.2248C15.8994 23.2652 14.968 21.4162 14.0574 19.743C13.126 18.0893 12.2414 16.5984 11.4245 15.3939C11.029 14.7754 10.6492 14.2416 10.3162 13.7663C9.98315 13.2845 9.69175 12.8744 9.43679 12.5553C8.94246 11.8978 8.66147 11.5267 8.66147 11.5267L8.65107 11.5201Z" fill="url(#paint6_linear_52_301)"/>
<path d="M38.3209 79.2234C37.6887 79.2234 37.1761 79.8646 37.1761 80.6557C37.1761 81.4467 37.6887 82.088 38.3209 82.088C38.9531 82.088 39.4656 81.4467 39.4656 80.6557C39.4656 79.8646 38.9531 79.2234 38.3209 79.2234Z" fill="url(#paint7_linear_52_301)"/>
<path d="M2.11558 0.6737C2.11558 0.6737 2.03232 0.901556 1.87102 1.31172C1.72012 1.7284 1.5536 2.38597 1.5536 3.2714C1.54319 4.15684 1.73052 5.23758 2.03232 6.4811C2.32371 7.73112 2.78161 9.13741 3.02097 10.8497C3.25512 12.562 3.16147 14.4891 2.93252 16.5139C2.70877 18.5387 2.38095 20.6806 2.35493 22.9854C2.32371 25.2901 2.51103 27.7445 2.9221 30.2837C3.32796 32.8228 3.95237 35.453 4.69646 38.1549C5.44055 40.8633 6.31473 43.6433 7.17329 46.56C8.03706 49.4702 8.88521 52.5237 9.54604 55.7464C10.2069 58.9626 10.67 62.3091 11.1279 65.7076C11.5806 69.1061 12.0229 72.5567 12.6525 76.0007C13.2821 79.4383 14.1146 82.8498 15.3478 86.1051C16.5654 89.3734 18.0692 92.531 19.6511 95.6821C21.2329 98.8332 22.8824 102.004 24.3706 105.337C24.74 106.171 25.0938 107.023 25.4477 107.87L25.9472 109.172L26.197 109.823L26.3999 110.429C26.5872 110.943 26.7173 111.405 26.8214 111.861L26.8422 111.939C26.8422 111.939 26.8578 112.017 26.8578 111.958L26.8786 111.776L26.915 111.418L26.9827 110.721L27.0971 109.478C27.1752 108.632 27.248 107.785 27.3105 106.945C27.5706 103.573 27.7267 100.213 27.6383 96.9061C27.555 93.6052 27.248 90.35 26.634 87.2444C26.4519 86.4762 26.301 85.7015 26.0981 84.9527C25.8795 84.2105 25.7026 83.4488 25.4581 82.7261C24.9846 81.2677 24.4382 79.842 23.8502 78.4422C22.6794 75.6427 21.3526 72.9408 20.1974 70.1542C19.6042 68.774 19.0683 67.3743 18.5323 65.994C18.0276 64.6008 17.5177 63.2205 17.0702 61.8403C16.1596 59.0798 15.353 56.3454 14.6818 53.6565C14.0054 50.9677 13.4278 48.3374 12.9699 45.7787C12.0229 40.668 11.4973 35.8632 11.2215 31.5597C11.1435 30.4855 11.1019 29.4373 11.0602 28.4216C11.0134 27.406 10.9926 26.4229 10.9666 25.5049C10.9198 23.6559 10.8313 22.0088 10.6127 20.5764C10.4983 19.8603 10.3682 19.2027 10.1861 18.5972C10.0352 17.9787 9.81142 17.4318 9.6293 16.9045C9.40035 16.3967 9.21303 15.9084 8.97888 15.4917C8.8696 15.2769 8.76553 15.0685 8.66146 14.8732C8.54699 14.6844 8.43772 14.5021 8.33885 14.3263C8.14112 13.9747 7.92779 13.6753 7.74567 13.4018C7.56876 13.1284 7.39703 12.894 7.24613 12.6987C6.94954 12.3015 6.74661 12.0346 6.63734 11.9109C5.77358 10.8367 4.889 9.86009 4.05646 8.98116C3.22911 8.09573 2.46941 7.30143 1.8398 6.6048C0.575369 5.21805 -0.158317 4.20894 0.0290053 3.85737C0.211125 3.51231 1.26221 3.88338 2.80762 4.84694C3.58293 5.32872 4.47792 5.97329 5.43015 6.78711C6.38237 7.59442 7.39704 8.58401 8.35967 9.78847C8.47935 9.92519 8.7083 10.2247 9.04132 10.6739C9.21303 10.8952 9.40035 11.1557 9.60849 11.4747C9.81662 11.7872 10.056 12.1257 10.2849 12.5424C10.4046 12.7442 10.5295 12.9591 10.6596 13.1804C10.7844 13.4083 10.9041 13.6557 11.0342 13.9097C11.3048 14.4045 11.5337 14.9904 11.7991 15.5959C12.0229 16.2339 12.283 16.898 12.4652 17.6467C12.6837 18.3824 12.8398 19.1897 12.9699 20.0295C13.2196 21.7093 13.3029 23.5257 13.3393 25.4073C13.3602 26.3513 13.3758 27.3018 13.4174 28.2914C13.4486 29.2745 13.485 30.2967 13.5579 31.3384C13.8024 35.5246 14.2915 40.1927 15.1813 45.1733C15.6132 47.6668 16.1596 50.232 16.8048 52.8492C17.4396 55.473 18.2097 58.1358 19.0839 60.8311C19.5106 62.1853 19.9997 63.5265 20.4836 64.8937C20.9987 66.2414 21.5087 67.6086 22.0811 68.9563C23.1842 71.6712 24.4902 74.3796 25.687 77.2898C26.2854 78.7417 26.8578 80.2456 27.3521 81.8147C27.6071 82.5959 27.7996 83.4097 28.0234 84.2105C28.2315 85.0178 28.3928 85.8447 28.5749 86.665C29.2097 89.9854 29.5063 93.4099 29.5688 96.854C29.6364 100.298 29.4491 103.749 29.1629 107.18C29.0953 108.039 29.012 108.899 28.9287 109.751L28.8663 110.396L28.757 111.425L28.5177 113.599C28.3512 115.051 28.1846 116.496 28.0129 117.948L27.758 120.123L27.6331 121.21C27.6123 121.425 27.5915 121.483 27.5706 121.601L27.503 121.913L26.8994 119.244L26.7485 118.58L26.582 117.87L26.249 116.457L25.916 115.051L25.7494 114.348L25.6662 113.996L25.5777 113.69L25.2291 112.486L24.8597 111.379L24.6307 110.682L24.3966 110.057L23.9283 108.801C23.5952 107.974 23.257 107.147 22.9032 106.333C21.4775 103.072 19.8696 99.9075 18.3034 96.7173C16.7371 93.5206 15.223 90.2718 13.9898 86.8733C12.7357 83.4748 11.9032 79.9005 11.2892 76.3783C10.6752 72.8496 10.2693 69.36 9.84783 65.968C9.42636 62.576 8.99968 59.2621 8.39089 56.1045C7.16808 49.7958 5.19599 44.0535 3.77546 38.5455C3.05739 35.7981 2.459 33.1027 2.07915 30.492C1.6993 27.8813 1.54321 25.3422 1.61605 22.9658C1.6889 20.5764 2.06354 18.3954 2.32371 16.4097C2.58908 14.424 2.70876 12.588 2.53184 10.9538C2.34972 9.33271 1.93346 7.90041 1.67849 6.61783C1.41312 5.34177 1.25701 4.20241 1.31425 3.2714C1.35588 2.34039 1.57442 1.6568 1.77215 1.24663C1.98029 0.842977 2.12078 0.667196 2.13119 0.680217L2.11558 0.6737Z" fill="url(#paint8_linear_52_301)"/>
<path d="M2.07916 4.8469C2.07916 4.8469 2.1416 4.9641 2.26128 5.18546C2.37576 5.40682 2.56309 5.72583 2.77122 6.15553C3.1979 7.0019 3.76507 8.26496 4.34265 9.87306C4.92022 11.4747 5.4926 13.4278 5.99733 15.5958C6.50206 17.7638 6.94955 20.1402 7.36062 22.5816C7.77169 25.0231 8.19836 27.5166 8.54699 29.9711C8.90603 32.4256 9.10897 34.854 9.32231 37.0416C9.70216 41.4166 10.6232 44.8152 11.055 46.586C11.4973 48.3439 12.3819 51.814 13.5006 56.0133C14.6142 60.2191 15.9358 65.1671 17.0337 69.9589C18.1473 74.7506 18.9798 79.3992 19.4377 82.8563C19.6615 84.5881 19.8228 86.0139 19.9008 87.01C19.9893 88.0061 20.0361 88.566 20.0361 88.566C20.0361 88.566 19.9685 88.0061 19.8488 87.0165C19.7395 86.0269 19.5262 84.6076 19.2504 82.8953C18.6832 79.4708 17.7102 74.8874 16.4562 70.1737C15.2178 65.4536 13.7556 60.5837 12.538 56.4235C11.3152 52.2632 10.3526 48.8126 9.90509 47.0288C9.68134 46.1368 9.35873 44.8087 9.04653 43.1224C8.72392 41.4492 8.46375 39.3919 8.31285 37.1718C8.15154 34.9452 8.02145 32.5688 7.73526 30.1274C7.45948 27.6859 7.10566 25.1728 6.76744 22.7184C6.42921 20.2639 6.05977 17.8875 5.62789 15.713C5.19601 13.5385 4.68607 11.5788 4.16573 9.9577C3.64539 8.33658 3.11984 7.05397 2.72438 6.18155C2.53185 5.73884 2.35494 5.41984 2.24567 5.18546C2.1364 4.95759 2.07395 4.84038 2.07395 4.84038L2.07916 4.8469Z" fill="url(#paint9_linear_52_301)"/>
</g>
<defs>
<linearGradient id="paint0_linear_52_301" x1="68.4083" y1="84.3652" x2="-19.1494" y2="37.3347" gradientUnits="userSpaceOnUse">
<stop stop-color="#D9AF63"/>
<stop offset="0.53" stop-color="#BF8C4E"/>
<stop offset="1" stop-color="#BF793B"/>
</linearGradient>
<linearGradient id="paint1_linear_52_301" x1="51.8408" y1="55.3871" x2="-7.94443" y2="19.9136" gradientUnits="userSpaceOnUse">
<stop stop-color="#D9AF63"/>
<stop offset="0.53" stop-color="#BF8C4E"/>
<stop offset="1" stop-color="#BF793B"/>
</linearGradient>
<linearGradient id="paint2_linear_52_301" x1="98.3928" y1="57.4352" x2="31.9511" y2="-23.0011" gradientUnits="userSpaceOnUse">
<stop stop-color="#D9AF63"/>
<stop offset="0.53" stop-color="#BF8C4E"/>
<stop offset="1" stop-color="#BF793B"/>
</linearGradient>
<linearGradient id="paint3_linear_52_301" x1="92.2698" y1="59.782" x2="89.0395" y2="57.5753" gradientUnits="userSpaceOnUse">
<stop stop-color="#D9AF63"/>
<stop offset="0.53" stop-color="#BF8C4E"/>
<stop offset="1" stop-color="#BF793B"/>
</linearGradient>
<linearGradient id="paint4_linear_52_301" x1="77.4383" y1="20.6386" x2="67.9337" y2="-11.1685" gradientUnits="userSpaceOnUse">
<stop stop-color="#D9AF63"/>
<stop offset="0.53" stop-color="#BF8C4E"/>
<stop offset="1" stop-color="#BF793B"/>
</linearGradient>
<linearGradient id="paint5_linear_52_301" x1="74.3961" y1="20.7775" x2="71.1658" y2="18.5708" gradientUnits="userSpaceOnUse">
<stop stop-color="#D9AF63"/>
<stop offset="0.53" stop-color="#BF8C4E"/>
<stop offset="1" stop-color="#BF793B"/>
</linearGradient>
<linearGradient id="paint6_linear_52_301" x1="40.6598" y1="77.5918" x2="-12.7782" y2="57.8663" gradientUnits="userSpaceOnUse">
<stop stop-color="#D9AF63"/>
<stop offset="0.53" stop-color="#BF8C4E"/>
<stop offset="1" stop-color="#BF793B"/>
</linearGradient>
<linearGradient id="paint7_linear_52_301" x1="39.6737" y1="82.0091" x2="36.4434" y2="79.8023" gradientUnits="userSpaceOnUse">
<stop stop-color="#D9AF63"/>
<stop offset="0.53" stop-color="#BF8C4E"/>
<stop offset="1" stop-color="#BF793B"/>
</linearGradient>
<linearGradient id="paint8_linear_52_301" x1="32.2712" y1="118.572" x2="-26.3941" y2="106.337" gradientUnits="userSpaceOnUse">
<stop stop-color="#D9AF63"/>
<stop offset="0.53" stop-color="#BF8C4E"/>
<stop offset="1" stop-color="#BF793B"/>
</linearGradient>
<linearGradient id="paint9_linear_52_301" x1="21.6686" y1="86.2587" x2="-14.2924" y2="79.6644" gradientUnits="userSpaceOnUse">
<stop stop-color="#D9AF63"/>
<stop offset="0.53" stop-color="#BF8C4E"/>
<stop offset="1" stop-color="#BF793B"/>
</linearGradient>
</defs>
</svg>
