<svg width="75" height="110" viewBox="0 0 75 110" fill="none" xmlns="http://www.w3.org/2000/svg">
<g opacity="0.2">
<path d="M7.52253 109.582C7.55645 109.593 7.69209 108.871 7.91676 107.51C8.14991 106.154 8.43394 104.146 8.96806 101.681C9.50218 99.2215 10.3627 96.3102 11.8845 93.4399C12.6391 92.0077 13.559 90.6107 14.5975 89.2196C15.6319 87.8226 16.7891 86.4373 17.9676 84.9346C19.1461 83.432 20.3627 81.8061 21.4479 79.8867C22.5458 77.9673 23.4106 75.7544 24.2541 73.5122C25.0977 71.27 25.9243 68.9749 27.018 66.9029C28.0947 64.825 29.5191 63.117 31.1426 61.6613C32.7662 60.1997 34.5551 58.9671 36.3439 57.5818C37.2384 56.8892 38.1328 56.1555 39.0019 55.3279C39.8709 54.5002 40.6932 53.5845 41.4902 52.6219C44.661 48.7244 47.1705 43.9406 49.608 39.2801L48.3405 38.3351C45.5978 48.0905 42.4567 57.529 39.1799 66.1281C37.5351 70.4306 35.937 74.5511 33.9446 77.8793C31.9608 81.1957 29.5615 83.7196 27.2427 85.8797C24.9154 88.0456 22.6645 89.9063 20.6976 91.7376C18.7306 93.5749 17.0562 95.3123 15.687 96.8384C12.9485 99.9024 11.3886 102.027 11.0791 102.432C8.47633 105.884 6.93331 109.376 7.3445 109.852C7.76841 110.35 9.93457 107.75 12.4526 104.41C12.7535 104.017 14.2626 101.933 16.9121 98.928C18.2347 97.4254 19.8582 95.7173 21.7616 93.9094C23.6691 92.1016 25.9031 90.2233 28.277 87.9752C30.6424 85.7271 33.1774 83.0387 35.3096 79.4113C37.4334 75.7955 39.0442 71.5165 40.6636 67.1846C43.9107 58.4681 47.0137 48.9064 49.697 39.0394L51.6936 31.6964L48.4295 38.0944C46.0345 42.796 43.614 47.4918 40.6212 51.2543C39.8709 52.1876 39.0951 53.0739 38.2812 53.8663C37.4673 54.6646 36.611 55.3865 35.742 56.0792C33.9998 57.4703 32.1981 58.7499 30.5152 60.3112C29.6759 61.0919 28.8662 61.943 28.1286 62.8939C27.3868 63.8448 26.7255 64.9013 26.1575 66.0166C25.0172 68.2471 24.199 70.6243 23.3851 72.8724C22.5712 75.1205 21.7616 77.2688 20.7442 79.106C19.7353 80.9609 18.5695 82.575 17.425 84.0953C16.2762 85.6155 15.1359 87.036 14.1016 88.4917C13.0672 89.9415 12.1389 91.409 11.3886 92.9175C9.87098 95.9228 9.0486 98.9691 8.56958 101.493C8.09481 104.023 7.87438 106.048 7.7133 107.427C7.55645 108.807 7.49286 109.546 7.52678 109.552L7.52253 109.582Z" fill="url(#paint0_linear_47_246)"/>
<path d="M7.52254 109.312C7.52254 109.312 7.63699 108.895 7.83622 108.155C8.04394 107.422 8.3322 106.359 8.74763 105.109C9.15882 103.859 9.69294 102.415 10.3839 100.936C11.0749 99.4563 11.9269 97.9596 12.8807 96.5274C13.8303 95.0893 14.8943 93.7451 15.9583 92.4832C16.2253 92.1721 16.4924 91.861 16.7552 91.5557C17.0265 91.2564 17.2936 90.9629 17.5564 90.6753C18.0821 90.0766 18.5907 89.5835 19.1249 89.1315C20.1846 88.2335 21.2105 87.4352 21.982 86.5078C22.3678 86.0558 22.6857 85.5686 22.9315 85.1225C23.1774 84.6764 23.3597 84.2832 23.4996 83.9603C23.7878 83.3264 24.1439 82.3462 24.6526 81.2837C25.1571 80.2272 25.9582 79.1765 26.9756 78.2021C27.9845 77.2219 29.1926 76.271 30.333 75.0795C31.4775 73.9055 32.5754 72.5613 33.5674 71.1467C35.5597 68.3117 37.0688 65.1596 37.993 62.712C38.2261 62.1015 38.4253 61.5322 38.5949 61.0332C38.756 60.5226 38.9043 60.0882 39.0103 59.7243C39.2223 58.9906 39.341 58.5797 39.341 58.5797C39.341 58.5797 39.2096 58.9847 38.9806 59.7067C38.862 60.0647 38.7051 60.4932 38.5271 60.9922C38.3406 61.4793 38.1286 62.0369 37.8785 62.6298C36.895 65.0129 35.3096 68.0593 33.2749 70.7476C32.2617 72.0976 31.1511 73.3596 30.0023 74.4573C28.862 75.5666 27.6623 76.4412 26.5856 77.4156C26.0473 77.9028 25.5513 78.4193 25.1104 78.9593C24.6738 79.5052 24.3008 80.0981 24.0083 80.6616C23.4318 81.8061 23.0757 82.7688 22.8001 83.3675C22.5246 83.9779 22.1431 84.8467 21.4606 85.6919C20.7823 86.5547 19.8158 87.3589 18.7476 88.3274C18.2177 88.8087 17.6582 89.3839 17.1579 90.0002C16.8994 90.3055 16.6365 90.6107 16.3695 90.9277C16.1109 91.2505 15.8481 91.5792 15.5852 91.9079C14.5424 93.2345 13.4954 94.6491 12.5713 96.1576C11.6429 97.6544 10.8205 99.2216 10.1592 100.748C9.49794 102.274 9.00197 103.759 8.6247 105.038C8.24318 106.318 7.98459 107.392 7.79807 108.138C7.62003 108.889 7.51829 109.312 7.51829 109.312H7.52254Z" fill="url(#paint1_linear_47_246)"/>
<path d="M74.2963 56.7484C74.2963 56.7484 74.1395 57.4176 73.8639 58.6091C73.5842 59.8007 73.1772 61.5029 72.6007 63.5397C72.0199 65.5647 71.2654 67.9302 70.1717 70.2899C69.078 72.6319 67.6071 74.9562 65.7164 76.6115C63.8301 78.2726 61.63 79.2705 59.4808 80.0688C57.3273 80.8671 55.2078 81.5245 53.2536 82.0704C49.3409 83.1563 46.0938 83.8665 44.4448 84.2598C42.7958 84.6589 39.5529 85.3809 35.6318 86.4491C33.6733 86.995 31.5496 87.6701 29.4173 88.6268C27.2893 89.5836 25.1613 90.8632 23.2452 92.5067C21.3334 94.1502 19.6039 96.0285 18.0057 97.7366C16.4076 99.4564 14.9663 101.076 13.7497 102.473C11.3207 105.262 9.80315 107.134 9.80315 107.134C9.80315 107.134 11.3377 105.285 13.7836 102.532C15.0087 101.159 16.4627 99.5621 18.0736 97.8599C19.6844 96.1694 21.4224 94.3204 23.3385 92.7121C25.2503 91.1038 27.3656 89.8653 29.4894 88.9438C31.6132 88.0164 33.7327 87.3707 35.6869 86.8542C39.6038 85.8387 42.8552 85.1402 44.4999 84.7469C46.1489 84.3537 49.396 83.6141 53.3087 82.4754C55.2629 81.906 57.3824 81.2192 59.5401 80.3916C61.6893 79.5581 63.9064 78.525 65.8097 76.8111C67.7173 75.1089 69.184 72.7375 70.265 70.3662C71.3459 67.9831 72.0835 65.5999 72.6516 63.5632C73.2111 61.5205 73.6053 59.8007 73.8766 58.6091C74.1437 57.4117 74.2963 56.7426 74.2963 56.7426V56.7484Z" fill="url(#paint2_linear_47_246)"/>
<path d="M73.1348 57.2356C73.1348 57.9517 73.5545 58.5269 74.0674 58.5269C74.5803 58.5269 75 57.9458 75 57.2356C75 56.5253 74.5803 55.9442 74.0674 55.9442C73.5545 55.9442 73.1348 56.5253 73.1348 57.2356Z" fill="url(#paint3_linear_47_246)"/>
<path d="M58.9382 92.0019C58.9382 92.0019 58.8661 91.9549 58.7347 91.8727C58.599 91.7964 58.4125 91.6497 58.1497 91.5264C57.6325 91.2682 56.8568 90.9981 55.8945 90.957C54.9323 90.9101 53.7962 91.1155 52.5965 91.5147C51.3926 91.9021 50.1251 92.489 48.8238 93.0525C47.5266 93.6278 46.1828 94.1267 44.8475 94.4495C43.5164 94.7782 42.2023 94.9543 40.9942 95.0541C38.5779 95.2537 36.5771 95.2008 35.5639 95.2067C34.5466 95.2184 32.55 95.1715 30.1168 95.2772C27.6878 95.3711 24.8179 95.7526 22.1685 96.727C20.8459 97.2083 19.5827 97.8246 18.4593 98.5407C17.336 99.2568 16.3779 100.102 15.598 100.883C14.8307 101.687 14.2499 102.432 13.8726 102.978C13.4996 103.536 13.2919 103.853 13.2919 103.853C13.2919 103.853 13.5039 103.542 13.8854 102.996C14.2711 102.456 14.8603 101.728 15.6319 100.947C16.4161 100.19 17.3826 99.3742 18.5059 98.6875C19.6293 98.0007 20.8925 97.4137 22.2109 96.9676C24.8518 96.0637 27.7047 95.7409 30.121 95.6998C32.5415 95.6469 34.5423 95.7174 35.5597 95.7056C36.5771 95.6998 38.5822 95.7232 41.0112 95.4767C42.2235 95.3476 43.5461 95.148 44.8857 94.79C46.2252 94.4378 47.5817 93.9037 48.8746 93.2932C50.1718 92.7004 51.4265 92.0899 52.6177 91.6732C53.8047 91.2505 54.928 91.0216 55.886 91.0392C56.8441 91.0568 57.6198 91.3092 58.137 91.5499C58.3956 91.6673 58.5863 91.8082 58.7262 91.8786C58.8619 91.9608 58.9297 92.0019 58.9297 92.0019H58.9382Z" fill="url(#paint4_linear_47_246)"/>
<path d="M58.5736 92.401C58.5736 93.1171 58.9933 93.6923 59.5062 93.6923C60.0191 93.6923 60.4388 93.1112 60.4388 92.401C60.4388 91.6907 60.0191 91.1096 59.5062 91.1096C58.9933 91.1096 58.5736 91.6907 58.5736 92.401Z" fill="url(#paint5_linear_47_246)"/>
<path d="M7.04777 99.5268C7.04777 99.5268 7.27668 99.1981 7.68787 98.6111C7.89559 98.3235 8.14145 97.9596 8.41699 97.5311C8.69677 97.1085 9.01046 96.6272 9.3411 96.0813C10.0194 95.0071 10.757 93.6747 11.5369 92.1956C12.3 90.6988 13.08 89.0376 13.8133 87.2826C14.5382 85.5158 15.2122 83.661 15.8057 81.812C16.4034 79.9689 16.8866 78.1141 17.2978 76.4001C18.1033 72.9546 18.5145 70.0315 18.7646 68.57C18.8875 67.8363 19.0613 66.7445 19.3241 65.4238C19.5827 64.1031 19.943 62.5418 20.4898 60.9276C21.0324 59.3134 21.8252 57.6993 22.8298 56.2553C23.8218 54.7937 24.9493 53.4202 25.9074 51.8824C27.8531 48.8301 29.1884 45.3729 29.9387 42.7315C30.316 41.405 30.5704 40.2897 30.723 39.5032C30.8756 38.7166 30.9519 38.2705 30.9519 38.2705C30.9519 38.2705 30.8713 38.7166 30.706 39.4973C30.5407 40.278 30.2779 41.3874 29.8836 42.7022C29.1036 45.3259 27.7344 48.7303 25.7717 51.718C24.8052 53.2265 23.6691 54.5707 22.6518 56.0264C21.6217 57.4645 20.7866 59.1139 20.2186 60.7515C19.6463 62.3892 19.269 63.9681 18.9977 65.3005C18.7222 66.633 18.5441 67.7306 18.4212 68.4643C18.1668 69.9376 17.7769 72.849 17.0138 76.2827C16.6196 77.9908 16.1575 79.8398 15.5853 81.6888C15.0172 83.5377 14.3644 85.3984 13.6649 87.1711C12.9528 88.9379 12.194 90.6049 11.4522 92.1134C10.6934 93.6043 9.97272 94.9484 9.30719 96.0343C8.98502 96.592 8.67557 97.0733 8.40427 97.5018C8.13297 97.9361 7.89559 98.3059 7.68787 98.5935C7.28516 99.1864 7.05624 99.5209 7.05624 99.5209L7.04777 99.5268Z" fill="url(#paint6_linear_47_246)"/>
<path d="M31.2189 38.4877C30.7039 38.4877 30.2863 37.9096 30.2863 37.1964C30.2863 36.4832 30.7039 35.905 31.2189 35.905C31.734 35.905 32.1515 36.4832 32.1515 37.1964C32.1515 37.9096 31.734 38.4877 31.2189 38.4877Z" fill="url(#paint7_linear_47_246)"/>
<path d="M1.72349 109.306C1.72349 109.306 1.65567 109.1 1.52425 108.73C1.40132 108.355 1.26566 107.762 1.26566 106.964C1.25719 106.165 1.4098 105.191 1.65566 104.07C1.89305 102.943 2.26609 101.675 2.46108 100.131C2.65184 98.5876 2.57555 96.8502 2.38903 95.0247C2.20675 93.1992 1.93968 91.2681 1.91848 89.1902C1.89305 87.1123 2.04566 84.8995 2.38054 82.6103C2.71119 80.3211 3.21988 77.9497 3.82607 75.5138C4.43225 73.072 5.14442 70.5656 5.84387 67.936C6.54755 65.3122 7.23852 62.5594 7.77688 59.6539C8.31524 56.7542 8.69252 53.7372 9.06556 50.6732C9.43436 47.6092 9.79468 44.4982 10.3076 41.3932C10.8205 38.294 11.4988 35.2183 12.5034 32.2834C13.4954 29.3368 14.7205 26.49 16.0092 23.649C17.2978 20.8081 18.6416 17.9495 19.854 14.9443C20.155 14.1929 20.4432 13.424 20.7315 12.661L21.1384 11.487L21.3419 10.9001L21.5072 10.3541C21.6598 9.89043 21.7658 9.47371 21.8506 9.06283L21.8675 8.9924C21.8675 8.9924 21.8803 8.92194 21.8803 8.97477L21.8972 9.13914L21.9269 9.46197L21.982 10.09L22.0753 11.2111C22.1388 11.9742 22.1982 12.7373 22.249 13.4945C22.461 16.535 22.5882 19.5637 22.5161 22.5455C22.4483 25.5215 22.1982 28.4563 21.698 31.2562C21.5496 31.9488 21.4267 32.6473 21.2614 33.3223C21.0833 33.9915 20.9392 34.6782 20.7399 35.3298C20.3542 36.6446 19.9091 37.93 19.4301 39.192C18.4763 41.716 17.3953 44.1519 16.4543 46.6642C15.971 47.9086 15.5344 49.1705 15.0977 50.4149C14.6866 51.671 14.2711 52.9154 13.9066 54.1598C13.1647 56.6485 12.5077 59.1138 11.9608 61.538C11.4098 63.9622 10.9392 66.3336 10.5662 68.6404C9.79467 73.2481 9.36653 77.5799 9.14186 81.4598C9.07827 82.4283 9.04436 83.3733 9.01045 84.289C8.9723 85.2047 8.95534 86.091 8.93415 86.9186C8.896 88.5856 8.82392 90.0707 8.64588 91.362C8.55262 92.0077 8.44666 92.6005 8.29829 93.1464C8.17536 93.704 7.99307 94.1971 7.84471 94.6725C7.65819 95.1304 7.50558 95.5706 7.31482 95.9462C7.2258 96.1399 7.14101 96.3278 7.05623 96.5039C6.96297 96.6741 6.87395 96.8385 6.79341 96.9969C6.63233 97.3139 6.45853 97.5839 6.31017 97.8304C6.16604 98.077 6.02614 98.2883 5.90321 98.4644C5.66158 98.8224 5.49626 99.0631 5.40724 99.1746C4.70356 100.143 3.98292 101.024 3.30467 101.816C2.63066 102.614 2.01175 103.33 1.49882 103.958C0.468728 105.209 -0.128985 106.118 0.0236212 106.435C0.171989 106.746 1.02828 106.412 2.28728 105.543C2.9189 105.109 3.64803 104.528 4.42378 103.794C5.19952 103.066 6.02614 102.174 6.81037 101.088C6.90787 100.965 7.09439 100.695 7.36569 100.29C7.50558 100.09 7.65818 99.8555 7.82775 99.5679C7.99731 99.2861 8.19231 98.9809 8.37883 98.6052C8.47633 98.4233 8.57806 98.2296 8.68403 98.03C8.78577 97.8246 8.88327 97.6015 8.98925 97.3726C9.20968 96.9265 9.3962 96.3982 9.61239 95.8523C9.79467 95.2771 10.0066 94.6784 10.155 94.0034C10.333 93.3401 10.4602 92.6123 10.5662 91.8551C10.7697 90.3407 10.8375 88.703 10.8672 87.0067C10.8841 86.1556 10.8968 85.2986 10.9307 84.4064C10.9562 83.5201 10.9859 82.5985 11.0452 81.6594C11.2444 77.8852 11.6429 73.6766 12.3678 69.1863C12.7196 66.9382 13.1647 64.6255 13.6904 62.2658C14.2076 59.9004 14.8349 57.4997 15.5471 55.0696C15.8947 53.8487 16.2932 52.6395 16.6874 51.4069C17.1071 50.1919 17.5225 48.9592 17.9888 47.7442C18.8875 45.2965 19.9515 42.8547 20.9265 40.231C21.414 38.922 21.8803 37.5661 22.283 36.1515C22.4907 35.4472 22.6475 34.7134 22.8298 33.9915C22.9994 33.2636 23.1308 32.5182 23.2792 31.7786C23.7963 28.785 24.0379 25.6976 24.0888 22.5925C24.1439 19.4874 23.9913 16.3765 23.7582 13.2832C23.7031 12.5084 23.6352 11.7335 23.5674 10.9646L23.5165 10.3835L23.4275 9.45609L23.2325 7.49559C23.0969 6.18665 22.9612 4.88358 22.8213 3.57463L22.6136 1.61417L22.5119 0.633903C22.4949 0.440202 22.478 0.387389 22.461 0.281735L22.4059 0L21.9142 2.40657L21.7912 3.00529L21.6556 3.64507L21.3843 4.91882L21.113 6.18666L20.9773 6.8206L20.9095 7.13755L20.8374 7.41344L20.5534 8.49933L20.2525 9.49718L20.0659 10.1252L19.8752 10.6887L19.4937 11.8216C19.2224 12.567 18.9468 13.3125 18.6586 14.0462C17.4971 16.9869 16.1872 19.8396 14.9112 22.7157C13.6353 25.5978 12.4017 28.5268 11.397 31.5908C10.3754 34.6548 9.69718 37.8772 9.19697 41.0527C8.69676 44.2341 8.3661 47.3803 8.02274 50.4384C7.67937 53.4965 7.33178 56.4842 6.83581 59.331C5.83962 65.0187 4.23302 70.1958 3.07575 75.1616C2.49076 77.6386 2.00327 80.0687 1.69381 82.4224C1.38436 84.7762 1.2572 87.0654 1.31654 89.2078C1.37589 91.362 1.6811 93.3284 1.89305 95.1186C2.10924 96.9089 2.20674 98.5641 2.06261 100.037C1.91424 101.499 1.57513 102.79 1.36741 103.947C1.15122 105.097 1.02404 106.124 1.07067 106.964C1.10458 107.803 1.28263 108.419 1.44371 108.789C1.61327 109.153 1.72773 109.312 1.73621 109.3L1.72349 109.306Z" fill="url(#paint8_linear_47_246)"/>
<path d="M1.69382 105.543C1.69382 105.543 1.74469 105.438 1.84219 105.238C1.93545 105.038 2.08806 104.751 2.25762 104.363C2.60523 103.6 3.06728 102.462 3.53782 101.012C4.00835 99.5678 4.47465 97.8069 4.88584 95.8523C5.29703 93.8977 5.66159 91.7552 5.99647 89.5541C6.33136 87.353 6.67896 85.1048 6.96298 82.892C7.25547 80.6791 7.42081 78.4897 7.59461 76.5175C7.90406 72.573 8.65437 69.509 9.00621 67.9124C9.36653 66.3276 10.0872 63.1991 10.9986 59.4131C11.9057 55.6213 12.9825 51.1603 13.8769 46.8402C14.7841 42.5201 15.4623 38.3291 15.8354 35.2123C16.0176 33.651 16.149 32.3655 16.2126 31.4674C16.2847 30.5694 16.3228 30.0646 16.3228 30.0646C16.3228 30.0646 16.2677 30.5694 16.1702 31.4616C16.0812 32.3538 15.9074 33.6334 15.6827 35.1771C15.2207 38.2646 14.428 42.3968 13.4064 46.6465C12.3975 50.902 11.2063 55.2926 10.2143 59.0433C9.21817 62.7941 8.43394 65.905 8.06938 67.5133C7.8871 68.3175 7.62428 69.5149 7.36994 71.0351C7.10712 72.5436 6.89516 74.3985 6.77223 76.4001C6.64082 78.4075 6.53483 80.5499 6.30169 82.7511C6.07701 84.9522 5.78876 87.2179 5.51323 89.4308C5.23769 91.6437 4.93671 93.7861 4.58487 95.7466C4.23303 97.7071 3.8176 99.4739 3.39369 100.935C2.96978 102.397 2.54163 103.553 2.21946 104.34C2.06262 104.739 1.9185 105.027 1.82947 105.238C1.74045 105.443 1.68958 105.549 1.68958 105.549L1.69382 105.543Z" fill="url(#paint9_linear_47_246)"/>
</g>
<defs>
<linearGradient id="paint0_linear_47_246" x1="55.7303" y1="33.852" x2="-18.6566" y2="69.9567" gradientUnits="userSpaceOnUse">
<stop stop-color="#D9AF63"/>
<stop offset="0.53" stop-color="#BF8C4E"/>
<stop offset="1" stop-color="#BF793B"/>
</linearGradient>
<linearGradient id="paint1_linear_47_246" x1="42.2332" y1="59.9778" x2="-8.91584" y2="87.4018" gradientUnits="userSpaceOnUse">
<stop stop-color="#D9AF63"/>
<stop offset="0.53" stop-color="#BF8C4E"/>
<stop offset="1" stop-color="#BF793B"/>
</linearGradient>
<linearGradient id="paint2_linear_47_246" x1="80.1578" y1="58.1313" x2="19.4034" y2="124.593" gradientUnits="userSpaceOnUse">
<stop stop-color="#D9AF63"/>
<stop offset="0.53" stop-color="#BF8C4E"/>
<stop offset="1" stop-color="#BF793B"/>
</linearGradient>
<linearGradient id="paint3_linear_47_246" x1="75.1695" y1="56.0154" x2="72.3747" y2="57.7406" gradientUnits="userSpaceOnUse">
<stop stop-color="#D9AF63"/>
<stop offset="0.53" stop-color="#BF8C4E"/>
<stop offset="1" stop-color="#BF793B"/>
</linearGradient>
<linearGradient id="paint4_linear_47_246" x1="63.0867" y1="91.306" x2="53.7751" y2="119.464" gradientUnits="userSpaceOnUse">
<stop stop-color="#D9AF63"/>
<stop offset="0.53" stop-color="#BF8C4E"/>
<stop offset="1" stop-color="#BF793B"/>
</linearGradient>
<linearGradient id="paint5_linear_47_246" x1="60.6083" y1="91.1808" x2="57.8135" y2="92.906" gradientUnits="userSpaceOnUse">
<stop stop-color="#D9AF63"/>
<stop offset="0.53" stop-color="#BF8C4E"/>
<stop offset="1" stop-color="#BF793B"/>
</linearGradient>
<linearGradient id="paint6_linear_47_246" x1="33.1244" y1="39.9586" x2="-11.3895" y2="54.8062" gradientUnits="userSpaceOnUse">
<stop stop-color="#D9AF63"/>
<stop offset="0.53" stop-color="#BF8C4E"/>
<stop offset="1" stop-color="#BF793B"/>
</linearGradient>
<linearGradient id="paint7_linear_47_246" x1="32.321" y1="35.9762" x2="29.5262" y2="37.7014" gradientUnits="userSpaceOnUse">
<stop stop-color="#D9AF63"/>
<stop offset="0.53" stop-color="#BF8C4E"/>
<stop offset="1" stop-color="#BF793B"/>
</linearGradient>
<linearGradient id="paint8_linear_47_246" x1="26.2904" y1="3.01232" x2="-21.8709" y2="12.0887" gradientUnits="userSpaceOnUse">
<stop stop-color="#D9AF63"/>
<stop offset="0.53" stop-color="#BF8C4E"/>
<stop offset="1" stop-color="#BF793B"/>
</linearGradient>
<linearGradient id="paint9_linear_47_246" x1="17.6528" y1="32.1448" x2="-11.8195" y2="37.0284" gradientUnits="userSpaceOnUse">
<stop stop-color="#D9AF63"/>
<stop offset="0.53" stop-color="#BF8C4E"/>
<stop offset="1" stop-color="#BF793B"/>
</linearGradient>
</defs>
</svg>
