<svg width="83" height="110" viewBox="0 0 83 110" fill="none" xmlns="http://www.w3.org/2000/svg">
<g opacity="0.2">
<path d="M74.6751 109.582C74.6375 109.593 74.4874 108.871 74.2388 107.51C73.9808 106.154 73.6664 104.146 73.0754 101.681C72.4843 99.2215 71.5319 96.3102 69.8478 93.4399C69.0127 92.0077 67.9947 90.6107 66.8454 89.2196C65.7007 87.8226 64.42 86.4373 63.1159 84.9346C61.8117 83.432 60.4653 81.8061 59.2644 79.8867C58.0493 77.9673 57.0923 75.7544 56.1588 73.5122C55.2252 71.27 54.3104 68.9749 53.1001 66.9029C51.9085 64.825 50.3322 63.117 48.5355 61.6613C46.7388 60.1997 44.7591 58.9671 42.7794 57.5818C41.7895 56.8892 40.7997 56.1555 39.838 55.3279C38.8762 54.5002 37.9662 53.5845 37.0842 52.6219C33.5752 48.7244 30.7979 43.9406 28.1005 39.2801L29.5032 38.3351C32.5384 48.0905 36.0146 57.529 39.6409 66.1281C41.4611 70.4306 43.2297 74.5511 45.4346 77.8793C47.6301 81.1957 50.2853 83.7196 52.8514 85.8797C55.4269 88.0456 57.918 89.9063 60.0947 91.7376C62.2714 93.5749 64.1245 95.3123 65.6397 96.8384C68.6703 99.9024 70.3967 102.027 70.7391 102.432C73.6195 105.884 75.3271 109.376 74.8721 109.852C74.403 110.35 72.0057 107.75 69.2192 104.41C68.8861 104.017 67.216 101.933 64.284 98.928C62.8203 97.4254 61.0236 95.7173 58.9172 93.9094C56.8062 92.1016 54.3339 90.2233 51.7068 87.9752C49.0891 85.7271 46.2837 83.0387 43.924 79.4113C41.5737 75.7955 39.791 71.5165 37.999 67.1846C34.4055 58.4681 30.9715 48.9064 28.002 39.0394L25.7924 31.6964L29.4047 38.0944C32.0552 42.796 34.7339 47.4918 38.0459 51.2543C38.8762 52.1876 39.7348 53.0739 40.6355 53.8663C41.5362 54.6646 42.4838 55.3865 43.4455 56.0792C45.3736 57.4703 47.3674 58.7499 49.2298 60.3112C50.1587 61.0919 51.0547 61.943 51.871 62.8939C52.6919 63.8448 53.4238 64.9013 54.0524 66.0166C55.3143 68.2471 56.2197 70.6243 57.1205 72.8724C58.0212 75.1205 58.9172 77.2688 60.0431 79.106C61.1596 80.9609 62.4497 82.575 63.7163 84.0953C64.9877 85.6155 66.2496 87.036 67.3943 88.4917C68.5389 89.9415 69.5663 91.409 70.3967 92.9175C72.0761 95.9228 72.9862 98.9691 73.5163 101.493C74.0417 104.023 74.2857 106.048 74.464 107.427C74.6375 108.807 74.7079 109.546 74.6704 109.552L74.6751 109.582Z" fill="url(#paint0_linear_47_228)"/>
<path d="M74.6751 109.312C74.6751 109.312 74.5484 108.895 74.3279 108.155C74.098 107.422 73.779 106.359 73.3193 105.109C72.8642 103.859 72.2732 102.415 71.5085 100.936C70.7438 99.4563 69.8009 97.9596 68.7453 96.5274C67.6945 95.0893 66.517 93.7451 65.3395 92.4832C65.044 92.1721 64.7484 91.861 64.4576 91.5557C64.1573 91.2564 63.8618 90.9629 63.5709 90.6753C62.9892 90.0766 62.4263 89.5835 61.8352 89.1315C60.6624 88.2335 59.5271 87.4352 58.6733 86.5078C58.2464 86.0558 57.8945 85.5686 57.6224 85.1225C57.3503 84.6764 57.1486 84.2832 56.9938 83.9603C56.6748 83.3264 56.2807 82.3462 55.7178 81.2837C55.1595 80.2272 54.2729 79.1765 53.147 78.2021C52.0305 77.2219 50.6935 76.271 49.4315 75.0795C48.1649 73.9055 46.9499 72.5613 45.8521 71.1467C43.6472 68.3117 41.9772 65.1596 40.9545 62.712C40.6965 62.1015 40.476 61.5322 40.2883 61.0332C40.11 60.5226 39.9459 60.0882 39.8286 59.7243C39.594 58.9906 39.4627 58.5797 39.4627 58.5797C39.4627 58.5797 39.6081 58.9847 39.8614 59.7067C39.9928 60.0647 40.1663 60.4932 40.3634 60.9922C40.5698 61.4793 40.8043 62.0369 41.0811 62.6298C42.1695 65.0129 43.924 68.0593 46.1758 70.7476C47.297 72.0976 48.5261 73.3596 49.7975 74.4573C51.0594 75.5666 52.387 76.4412 53.5786 77.4156C54.1744 77.9028 54.7233 78.4193 55.2111 78.9593C55.6943 79.5052 56.1072 80.0981 56.4308 80.6616C57.0689 81.8061 57.4629 82.7688 57.7679 83.3675C58.0728 83.9779 58.495 84.8467 59.2503 85.6919C60.0009 86.5547 61.0705 87.3589 62.2527 88.3274C62.8391 88.8087 63.4583 89.3839 64.0119 90.0002C64.298 90.3055 64.5889 90.6107 64.8845 90.9277C65.1706 91.2505 65.4615 91.5792 65.7523 91.9079C66.9064 93.2345 68.0651 94.6491 69.0878 96.1576C70.1152 97.6544 71.0253 99.2216 71.7571 100.748C72.4889 102.274 73.0378 103.759 73.4553 105.038C73.8776 106.318 74.1637 107.392 74.3701 108.138C74.5672 108.889 74.6798 109.312 74.6798 109.312H74.6751Z" fill="url(#paint1_linear_47_228)"/>
<path d="M0.778732 56.7484C0.778732 56.7484 0.952317 57.4176 1.25725 58.6091C1.56687 59.8007 2.01722 61.5029 2.65523 63.5397C3.29793 65.5647 4.13297 67.9302 5.34331 70.2899C6.55365 72.6319 8.18151 74.9562 10.2738 76.6115C12.3614 78.2726 14.7961 79.2705 17.1746 80.0688C19.5577 80.8671 21.9034 81.5245 24.066 82.0704C28.396 83.1563 31.9895 83.8665 33.8144 84.2598C35.6393 84.6589 39.2281 85.3809 43.5675 86.4491C45.7348 86.995 48.0852 87.6701 50.4448 88.6268C52.7998 89.5836 55.1548 90.8632 57.2753 92.5067C59.391 94.1502 61.305 96.0285 63.0736 97.7366C64.8422 99.4564 66.4373 101.076 67.7836 102.473C70.4717 105.262 72.1512 107.134 72.1512 107.134C72.1512 107.134 70.4529 105.285 67.7461 102.532C66.3903 101.159 64.7812 99.5621 62.9986 97.8599C61.2159 96.1694 59.2925 94.3204 57.1721 92.7121C55.0563 91.1038 52.7154 89.8653 50.3651 88.9438C48.0148 88.0164 45.6692 87.3707 43.5065 86.8542C39.1718 85.8387 35.5736 85.1402 33.7534 84.7469C31.9285 84.3537 28.335 83.6141 24.005 82.4754C21.8424 81.906 19.4968 81.2192 17.1089 80.3916C14.7305 79.5581 12.277 78.525 10.1706 76.8111C8.05954 75.1089 6.43637 72.7375 5.2401 70.3662C4.04384 67.9831 3.22756 65.5999 2.59893 63.5632C1.97969 61.5205 1.54341 59.8007 1.24317 58.6091C0.947626 57.4117 0.778732 56.7426 0.778732 56.7426V56.7484Z" fill="url(#paint2_linear_47_228)"/>
<path d="M2.06414 57.2356C2.06414 57.9517 1.5997 58.5269 1.03206 58.5269C0.464424 58.5269 0 57.9458 0 57.2356C0 56.5253 0.464424 55.9442 1.03206 55.9442C1.5997 55.9442 2.06414 56.5253 2.06414 57.2356Z" fill="url(#paint3_linear_47_228)"/>
<path d="M17.7751 92.0019C17.7751 92.0019 17.8548 91.9549 18.0003 91.8727C18.1504 91.7964 18.3568 91.6497 18.6477 91.5264C19.22 91.2682 20.0785 90.9981 21.1434 90.957C22.2083 90.9101 23.4655 91.1155 24.7932 91.5147C26.1255 91.9021 27.5282 92.489 28.9684 93.0525C30.4039 93.6278 31.891 94.1267 33.3687 94.4495C34.8418 94.7782 36.2961 94.9543 37.6331 95.0541C40.3071 95.2537 42.5213 95.2008 43.6426 95.2067C44.7684 95.2184 46.978 95.1715 49.6708 95.2772C52.3589 95.3711 55.5348 95.7526 58.4668 96.727C59.9305 97.2083 61.3285 97.8246 62.5717 98.5407C63.8148 99.2568 64.8751 100.102 65.7383 100.883C66.5874 101.687 67.2301 102.432 67.6476 102.978C68.0604 103.536 68.2903 103.853 68.2903 103.853C68.2903 103.853 68.0557 103.542 67.6335 102.996C67.2066 102.456 66.5545 101.728 65.7007 100.947C64.8329 100.19 63.7632 99.3742 62.5201 98.6875C61.2769 98.0007 59.8789 97.4137 58.4199 96.9676C55.4973 96.0637 52.3401 95.7409 49.6661 95.6998C46.9874 95.6469 44.7731 95.7174 43.6472 95.7056C42.5213 95.6998 40.3024 95.7232 37.6143 95.4767C36.2726 95.3476 34.8089 95.148 33.3265 94.79C31.8441 94.4378 30.3429 93.9037 28.9121 93.2932C27.4765 92.7004 26.0879 92.0899 24.7697 91.6732C23.4562 91.2505 22.213 91.0216 21.1528 91.0392C20.0926 91.0568 19.2341 91.3092 18.6617 91.5499C18.3756 91.6673 18.1645 91.8082 18.0096 91.8786C17.8595 91.9608 17.7845 92.0019 17.7845 92.0019H17.7751Z" fill="url(#paint4_linear_47_228)"/>
<path d="M18.1785 92.401C18.1785 93.1171 17.7141 93.6923 17.1465 93.6923C16.5788 93.6923 16.1144 93.1112 16.1144 92.401C16.1144 91.6907 16.5788 91.1096 17.1465 91.1096C17.7141 91.1096 18.1785 91.6907 18.1785 92.401Z" fill="url(#paint5_linear_47_228)"/>
<path d="M75.2005 99.5268C75.2005 99.5268 74.9471 99.1981 74.4921 98.6111C74.2622 98.3235 73.9901 97.9596 73.6852 97.5311C73.3756 97.1085 73.0284 96.6272 72.6625 96.0813C71.9119 95.0071 71.0956 93.6747 70.2325 92.1956C69.388 90.6988 68.5249 89.0376 67.7133 87.2826C66.9111 85.5158 66.1652 83.661 65.5084 81.812C64.8469 79.9689 64.3121 78.1141 63.8571 76.4001C62.9657 72.9546 62.5107 70.0315 62.2339 68.57C62.0979 67.8363 61.9055 66.7445 61.6147 65.4238C61.3285 64.1031 60.9297 62.5418 60.3246 60.9276C59.7241 59.3134 58.8468 57.6993 57.735 56.2553C56.6373 54.7937 55.3894 53.4202 54.3292 51.8824C52.1759 48.8301 50.6982 45.3729 49.8678 42.7315C49.4503 41.405 49.1688 40.2897 48.9999 39.5032C48.831 38.7166 48.7466 38.2705 48.7466 38.2705C48.7466 38.2705 48.8357 38.7166 49.0187 39.4973C49.2017 40.278 49.4925 41.3874 49.9288 42.7022C50.792 45.3259 52.3072 48.7303 54.4793 51.718C55.5489 53.2265 56.8061 54.5707 57.932 56.0264C59.072 57.4645 59.9962 59.1139 60.6248 60.7515C61.2581 62.3892 61.6756 63.9681 61.9759 65.3005C62.2808 66.633 62.4779 67.7306 62.6139 68.4643C62.8954 69.9376 63.327 72.849 64.1714 76.2827C64.6077 77.9908 65.119 79.8398 65.7523 81.6888C66.381 83.5377 67.1034 85.3984 67.8775 87.1711C68.6656 88.9379 69.5053 90.6049 70.3263 92.1134C71.166 93.6043 71.9635 94.9484 72.7001 96.0343C73.0566 96.592 73.399 97.0733 73.6993 97.5018C73.9995 97.9361 74.2622 98.3059 74.4921 98.5935C74.9378 99.1864 75.1911 99.5209 75.1911 99.5209L75.2005 99.5268Z" fill="url(#paint6_linear_47_228)"/>
<path d="M48.4511 38.4877C49.0211 38.4877 49.4831 37.9096 49.4831 37.1964C49.4831 36.4832 49.0211 35.905 48.4511 35.905C47.8811 35.905 47.419 36.4832 47.419 37.1964C47.419 37.9096 47.8811 38.4877 48.4511 38.4877Z" fill="url(#paint7_linear_47_228)"/>
<path d="M81.0927 109.306C81.0927 109.306 81.1677 109.1 81.3132 108.73C81.4492 108.355 81.5993 107.762 81.5993 106.964C81.6087 106.165 81.4398 105.191 81.1677 104.07C80.905 102.943 80.4922 101.675 80.2764 100.131C80.0653 98.5876 80.1497 96.8502 80.3561 95.0247C80.5579 93.1992 80.8534 91.2681 80.8769 89.1902C80.905 87.1123 80.7361 84.8995 80.3655 82.6103C79.9996 80.3211 79.4367 77.9497 78.7658 75.5138C78.095 73.072 77.3068 70.5656 76.5328 67.936C75.754 65.3122 74.9894 62.5594 74.3936 59.6539C73.7978 56.7542 73.3803 53.7372 72.9674 50.6732C72.5593 47.6092 72.1606 44.4982 71.5929 41.3932C71.0253 38.294 70.2747 35.2183 69.1629 32.2834C68.0651 29.3368 66.7093 26.49 65.2832 23.649C63.8571 20.8081 62.37 17.9495 61.0283 14.9443C60.6952 14.1929 60.3762 13.424 60.0572 12.661L59.6068 11.487L59.3816 10.9001L59.1987 10.3541C59.0298 9.89043 58.9125 9.47371 58.8187 9.06283L58.7999 8.9924C58.7999 8.9924 58.7859 8.92194 58.7859 8.97477L58.7671 9.13914L58.7342 9.46197L58.6733 10.09L58.57 11.2111C58.4997 11.9742 58.434 12.7373 58.3777 13.4945C58.1432 16.535 58.0024 19.5637 58.0822 22.5455C58.1572 25.5215 58.434 28.4563 58.9876 31.2562C59.1518 31.9488 59.2878 32.6473 59.4708 33.3223C59.6678 33.9915 59.8273 34.6782 60.0478 35.3298C60.4747 36.6446 60.9673 37.93 61.4974 39.192C62.5529 41.716 63.7492 44.1519 64.7906 46.6642C65.3254 47.9086 65.8086 49.1705 66.2918 50.4149C66.7469 51.671 67.2066 52.9154 67.6101 54.1598C68.431 56.6485 69.1582 59.1138 69.7633 61.538C70.3732 63.9622 70.8939 66.3336 71.3068 68.6404C72.1606 73.2481 72.6344 77.5799 72.883 81.4598C72.9534 82.4283 72.9909 83.3733 73.0284 84.289C73.0707 85.2047 73.0894 86.091 73.1129 86.9186C73.1551 88.5856 73.2349 90.0707 73.4319 91.362C73.5351 92.0077 73.6524 92.6005 73.8166 93.1464C73.9526 93.704 74.1543 94.1971 74.3185 94.6725C74.5249 95.1304 74.6938 95.5706 74.9049 95.9462C75.0034 96.1399 75.0973 96.3278 75.1911 96.5039C75.2943 96.6741 75.3928 96.8385 75.482 96.9969C75.6602 97.3139 75.8526 97.5839 76.0167 97.8304C76.1763 98.077 76.3311 98.2883 76.4671 98.4644C76.7345 98.8224 76.9175 99.0631 77.016 99.1746C77.7947 100.143 78.5922 101.024 79.3428 101.816C80.0887 102.614 80.7737 103.33 81.3413 103.958C82.4813 105.209 83.1427 106.118 82.9739 106.435C82.8097 106.746 81.862 106.412 80.4687 105.543C79.7697 105.109 78.9628 104.528 78.1044 103.794C77.2459 103.066 76.3311 102.174 75.4632 101.088C75.3553 100.965 75.1489 100.695 74.8486 100.29C74.6938 100.09 74.5249 99.8555 74.3373 99.5679C74.1496 99.2861 73.9338 98.9809 73.7274 98.6052C73.6195 98.4233 73.5069 98.2296 73.3897 98.03C73.2771 97.8246 73.1692 97.6015 73.0519 97.3726C72.808 96.9265 72.6015 96.3982 72.3623 95.8523C72.1606 95.2771 71.926 94.6784 71.7618 94.0034C71.5648 93.3401 71.424 92.6123 71.3068 91.8551C71.0816 90.3407 71.0065 88.703 70.9737 87.0067C70.9549 86.1556 70.9408 85.2986 70.9033 84.4064C70.8752 83.5201 70.8423 82.5985 70.7766 81.6594C70.5562 77.8852 70.1152 73.6766 69.313 69.1863C68.9236 66.9382 68.431 64.6255 67.8493 62.2658C67.277 59.9004 66.5827 57.4997 65.7946 55.0696C65.4099 53.8487 64.9689 52.6395 64.5326 51.4069C64.0682 50.1919 63.6084 48.9592 63.0924 47.7442C62.0979 45.2965 60.9204 42.8547 59.8414 40.231C59.3019 38.922 58.7858 37.5661 58.3402 36.1515C58.1103 35.4472 57.9367 34.7134 57.735 33.9915C57.5474 33.2636 57.4019 32.5182 57.2377 31.7786C56.6654 28.785 56.398 25.6976 56.3417 22.5925C56.2807 19.4874 56.4496 16.3765 56.7076 13.2832C56.7686 12.5084 56.8437 11.7335 56.9187 10.9646L56.975 10.3835L57.0735 9.45609L57.2893 7.49559C57.4395 6.18665 57.5896 4.88358 57.7444 3.57463L57.9743 1.61417L58.0868 0.633903C58.1056 0.440202 58.1244 0.387389 58.1432 0.281735L58.2041 0L58.7483 2.40657L58.8844 3.00529L59.0345 3.64507L59.3347 4.91882L59.635 6.18666L59.7851 6.8206L59.8601 7.13755L59.9399 7.41344L60.2542 8.49933L60.5873 9.49718L60.7937 10.1252L61.0048 10.6887L61.427 11.8216C61.7273 12.567 62.0322 13.3125 62.3512 14.0462C63.6366 16.9869 65.0862 19.8396 66.4982 22.7157C67.9103 25.5978 69.2754 28.5268 70.3873 31.5908C71.5179 34.6548 72.2685 37.8772 72.822 41.0527C73.3756 44.2341 73.7415 47.3803 74.1215 50.4384C74.5015 53.4965 74.8862 56.4842 75.435 59.331C76.5375 65.0187 78.3155 70.1958 79.5962 75.1616C80.2436 77.6386 80.783 80.0687 81.1255 82.4224C81.468 84.7762 81.6087 87.0654 81.543 89.2078C81.4773 91.362 81.1396 93.3284 80.905 95.1186C80.6658 96.9089 80.5579 98.5641 80.7174 100.037C80.8816 101.499 81.2569 102.79 81.4867 103.947C81.726 105.097 81.8667 106.124 81.8151 106.964C81.7776 107.803 81.5806 108.419 81.4023 108.789C81.2146 109.153 81.088 109.312 81.0786 109.3L81.0927 109.306Z" fill="url(#paint8_linear_47_228)"/>
<path d="M81.1255 105.543C81.1255 105.543 81.0692 105.438 80.9613 105.238C80.8581 105.038 80.6892 104.751 80.5016 104.363C80.1169 103.6 79.6055 102.462 79.0848 101.012C78.5641 99.5678 78.0481 97.8069 77.593 95.8523C77.138 93.8977 76.7345 91.7552 76.3639 89.5541C75.9933 87.353 75.6086 85.1048 75.2943 82.892C74.9706 80.6791 74.7876 78.4897 74.5953 76.5175C74.2528 72.573 73.4225 69.509 73.0331 67.9124C72.6344 66.3276 71.8369 63.1991 70.8282 59.4131C69.8243 55.6213 68.6328 51.1603 67.6429 46.8402C66.639 42.5201 65.8884 38.3291 65.4755 35.2123C65.2738 33.651 65.1284 32.3655 65.058 31.4674C64.9783 30.5694 64.9361 30.0646 64.9361 30.0646C64.9361 30.0646 64.9971 30.5694 65.1049 31.4616C65.2035 32.3538 65.3958 33.6334 65.6444 35.1771C66.1558 38.2646 67.033 42.3968 68.1636 46.6465C69.2801 50.902 70.5984 55.2926 71.6961 59.0433C72.7986 62.7941 73.6664 65.905 74.0699 67.5133C74.2716 68.3175 74.5625 69.5149 74.8439 71.0351C75.1348 72.5436 75.3694 74.3985 75.5054 76.4001C75.6508 78.4075 75.7681 80.5499 76.0261 82.7511C76.2748 84.9522 76.5938 87.2179 76.8987 89.4308C77.2036 91.6437 77.5367 93.7861 77.9261 95.7466C78.3155 97.7071 78.7752 99.4739 79.2443 100.935C79.7134 102.397 80.1873 103.553 80.5438 104.34C80.7174 104.739 80.8769 105.027 80.9754 105.238C81.0739 105.443 81.1302 105.549 81.1302 105.549L81.1255 105.543Z" fill="url(#paint9_linear_47_228)"/>
</g>
<defs>
<linearGradient id="paint0_linear_47_228" x1="21.3252" y1="33.852" x2="100.265" y2="76.2532" gradientUnits="userSpaceOnUse">
<stop stop-color="#D9AF63"/>
<stop offset="0.53" stop-color="#BF8C4E"/>
<stop offset="1" stop-color="#BF793B"/>
</linearGradient>
<linearGradient id="paint1_linear_47_228" x1="36.262" y1="59.9778" x2="90.1625" y2="91.9596" gradientUnits="userSpaceOnUse">
<stop stop-color="#D9AF63"/>
<stop offset="0.53" stop-color="#BF8C4E"/>
<stop offset="1" stop-color="#BF793B"/>
</linearGradient>
<linearGradient id="paint2_linear_47_228" x1="-5.70793" y1="58.1313" x2="54.1939" y2="130.65" gradientUnits="userSpaceOnUse">
<stop stop-color="#D9AF63"/>
<stop offset="0.53" stop-color="#BF8C4E"/>
<stop offset="1" stop-color="#BF793B"/>
</linearGradient>
<linearGradient id="paint3_linear_47_228" x1="-0.187599" y1="56.0154" x2="2.72472" y2="58.0049" gradientUnits="userSpaceOnUse">
<stop stop-color="#D9AF63"/>
<stop offset="0.53" stop-color="#BF8C4E"/>
<stop offset="1" stop-color="#BF793B"/>
</linearGradient>
<linearGradient id="paint4_linear_47_228" x1="13.184" y1="91.306" x2="21.7531" y2="119.982" gradientUnits="userSpaceOnUse">
<stop stop-color="#D9AF63"/>
<stop offset="0.53" stop-color="#BF8C4E"/>
<stop offset="1" stop-color="#BF793B"/>
</linearGradient>
<linearGradient id="paint5_linear_47_228" x1="15.9268" y1="91.1808" x2="18.8391" y2="93.1703" gradientUnits="userSpaceOnUse">
<stop stop-color="#D9AF63"/>
<stop offset="0.53" stop-color="#BF8C4E"/>
<stop offset="1" stop-color="#BF793B"/>
</linearGradient>
<linearGradient id="paint6_linear_47_228" x1="46.3423" y1="39.9586" x2="94.5205" y2="57.7425" gradientUnits="userSpaceOnUse">
<stop stop-color="#D9AF63"/>
<stop offset="0.53" stop-color="#BF8C4E"/>
<stop offset="1" stop-color="#BF793B"/>
</linearGradient>
<linearGradient id="paint7_linear_47_228" x1="47.2314" y1="35.9762" x2="50.1437" y2="37.9657" gradientUnits="userSpaceOnUse">
<stop stop-color="#D9AF63"/>
<stop offset="0.53" stop-color="#BF8C4E"/>
<stop offset="1" stop-color="#BF793B"/>
</linearGradient>
<linearGradient id="paint8_linear_47_228" x1="53.9053" y1="3.01232" x2="106.796" y2="14.0432" gradientUnits="userSpaceOnUse">
<stop stop-color="#D9AF63"/>
<stop offset="0.53" stop-color="#BF8C4E"/>
<stop offset="1" stop-color="#BF793B"/>
</linearGradient>
<linearGradient id="paint9_linear_47_228" x1="63.4643" y1="32.1448" x2="95.8856" y2="38.0901" gradientUnits="userSpaceOnUse">
<stop stop-color="#D9AF63"/>
<stop offset="0.53" stop-color="#BF8C4E"/>
<stop offset="1" stop-color="#BF793B"/>
</linearGradient>
</defs>
</svg>
