<svg width="29" height="25" viewBox="0 0 29 25" fill="none" xmlns="http://www.w3.org/2000/svg">
<g clip-path="url(#clip0_14_5)">
<path d="M14.4468 2.78582L12.5606 0.0549176L9.79448 2.78582H14.4468ZM9.06882 3.50474L9.06376 3.49975H8.78057L8.77552 3.50474L8.77046 3.49975H3.5113L8.9247 7.38143L10.3153 6.38293L14.3381 3.49725H9.0764L9.07135 3.50225L9.06882 3.50474ZM5.28879 0.0624064L3.39752 2.78582H8.04733L5.28879 0.0624064ZM11.5947 0H6.25213L8.9247 2.63854L11.5947 0ZM27.5518 11.2706C25.0258 6.85222 19.3292 5.28957 14.8564 7.78333C13.9437 8.29256 13.1396 8.9366 12.4645 9.69046C11.9538 9.44833 11.4177 9.25861 10.8665 9.12381L12.5935 7.86321C12.8817 7.65352 12.9424 7.24913 12.73 6.96455C12.5176 6.67998 12.108 6.62007 11.8198 6.82976L8.99802 8.88917C8.94492 8.88917 8.89183 8.88917 8.84126 8.88917L6.00434 6.85472C5.71357 6.64503 5.30649 6.70994 5.09663 6.997C4.88677 7.28407 4.94998 7.68597 5.24075 7.89316L6.96009 9.12631C6.73253 9.18123 6.5075 9.24613 6.28247 9.32102C4.22179 10.0175 2.55807 11.4653 1.59979 13.3974C0.64151 15.3295 0.502446 17.5137 1.20788 19.5507C1.91332 21.5851 3.37982 23.2277 5.33683 24.1737C6.4721 24.7229 7.69082 25 8.91964 25C9.80965 25 10.7022 24.8552 11.5695 24.5607C12.4595 24.2611 13.2736 23.8193 13.9917 23.2601C14.8741 23.8867 15.8678 24.3635 16.9449 24.658C18.3356 25.0399 19.7641 25.0974 21.1421 24.8452C22.1409 24.6605 23.1143 24.3135 24.0246 23.8068C26.1914 22.5986 27.754 20.6291 28.419 18.2626C29.0865 15.8962 28.7806 13.4124 27.5543 11.2731L27.5518 11.2706ZM11.0739 23.1428C9.39499 23.7094 7.59473 23.5996 6.00181 22.8283C4.40889 22.0569 3.21547 20.7214 2.64151 19.0639C2.06755 17.4064 2.18133 15.6291 2.96009 14.0564C3.74138 12.4838 5.0941 11.3055 6.77299 10.7389C7.48348 10.4993 8.20662 10.3844 8.91964 10.3844C9.82735 10.3844 10.7174 10.5741 11.5341 10.9211C11.0688 11.66 10.7047 12.4688 10.462 13.33C9.79448 15.6965 10.1004 18.1802 11.3267 20.3195C11.7389 21.0384 12.2395 21.69 12.8109 22.2616C12.2875 22.6335 11.7035 22.9306 11.0764 23.1428H11.0739ZM14.0701 21.0859C13.5922 20.6116 13.175 20.0749 12.8337 19.4783C11.8375 17.7359 11.5871 15.7164 12.1308 13.7893C12.333 13.0754 12.6339 12.4039 13.0233 11.7923C13.9993 12.5462 14.7755 13.5771 15.2054 14.8178C15.7793 16.4753 15.6655 18.2526 14.8868 19.8253C14.6617 20.2796 14.3861 20.7014 14.0701 21.0859ZM26.7477 17.8008C26.2041 19.7279 24.9348 21.3305 23.17 22.314C21.4051 23.2976 19.3596 23.5447 17.4076 23.008C16.6263 22.7933 15.9007 22.4638 15.2433 22.0344C15.6327 21.5627 15.9715 21.0434 16.2496 20.4843C17.2079 18.5522 17.3469 16.3679 16.6415 14.331C16.1131 12.8033 15.1598 11.5377 13.9614 10.6091C14.4696 10.0874 15.0562 9.63804 15.711 9.27109C16.4569 8.85422 17.2458 8.57713 18.0448 8.42986C21.1447 7.86071 24.4114 9.25112 26.0448 12.1093C27.041 13.8517 27.2913 15.8712 26.7477 17.7983V17.8008Z" fill="url(#paint0_linear_14_5)"/>
</g>
<defs>
<linearGradient id="paint0_linear_14_5" x1="-1.78074" y1="0.688966" x2="28.4533" y2="29.6329" gradientUnits="userSpaceOnUse">
<stop stop-color="#D9AF63"/>
<stop offset="0.53" stop-color="#BF8C4E"/>
<stop offset="1" stop-color="#BF793B"/>
</linearGradient>
<clipPath id="clip0_14_5">
<rect width="28" height="25" fill="white" transform="translate(0.760345)"/>
</clipPath>
</defs>
</svg>
