<svg width="208" height="155" viewBox="0 0 208 155" fill="none" xmlns="http://www.w3.org/2000/svg">
<g clip-path="url(#clip0_58_24)">
<path d="M116.99 125.38C115.48 124.02 114.29 122.86 113.02 121.82C108.44 118.08 107.31 114.4 109.9 108.23C118.25 88.35 112.1 65.76 95.67 52.24C78.93 38.46 56.03 36.79 37.86 48.04C19.41 59.46 10.52 81.37 15.73 102.57C20.72 122.84 38.52 137.87 59.7 139.79C70.16 140.74 79.82 138.15 88.59 133.53C92.21 136.8 95.62 139.88 99.07 143C81.86 156.92 44.95 161.03 19.86 136.56C-5.5 111.81 -6.65 73.07 16.93 46.89C39.16 22.21 78.53 19.61 104.73 41.09C129.53 61.42 135.38 100.38 117 125.39L116.99 125.38Z" fill="url(#paint0_linear_58_24)"/>
<path d="M119.75 47C115.79 43.56 112.41 40.62 109 37.66C125.26 24.21 162.54 18.89 189.14 44.91C213.03 68.28 214.25 107.01 191.86 132.82C170.18 157.82 131.56 161.29 104.65 140.67C78.93 120.96 72.49 82.42 91.08 55.03C94.05 58.25 97.12 61.14 99.58 64.48C100.3 65.46 99.68 67.87 99.04 69.34C87.72 95.29 97.89 123.68 123.52 135.4C142.15 143.92 160.24 141.43 175.88 128.31C191.69 115.05 197.34 97.51 191.94 77.52C186.55 57.58 172.96 45.58 152.65 41.46C140.71 39.04 129.55 41.69 119.75 46.99V47Z" fill="url(#paint1_linear_58_24)"/>
<path d="M149.39 55.04C149.94 63.79 154.26 67.81 162.94 67.95C154.87 68.81 149.55 71.95 149.66 81.29C149.2 72.54 145.15 68.31 136.38 68.3C144.25 67.21 149.73 64.44 149.39 55.04Z" fill="url(#paint2_linear_58_24)"/>
<path d="M56.82 55.58C57.86 58.76 58.06 62.8 60.18 64.89C62.24 66.92 66.27 66.97 69.79 68.24C62.01 68.88 56.41 71.72 56.83 81.47C56.43 72.22 51.84 68.47 43.3 68.18C51.55 67.46 56.65 64.14 56.81 55.58H56.82Z" fill="url(#paint3_linear_58_24)"/>
<path d="M101.06 -9.76585e-06C101.31 8.66999 105.13 13.18 114.18 13.5C105.12 13.79 101.27 18.26 101.2 26.92C100.16 19.05 97.5 13.33 87.88 13.73C96.72 13.13 100.67 8.53999 101.06 -0.0100098V-9.76585e-06Z" fill="url(#paint4_linear_58_24)"/>
</g>
<defs>
<linearGradient id="paint0_linear_58_24" x1="-11.6002" y1="30.0548" x2="141.06" y2="160.644" gradientUnits="userSpaceOnUse">
<stop stop-color="#D9AF63"/>
<stop offset="0.53" stop-color="#BF8C4E"/>
<stop offset="1" stop-color="#BF793B"/>
</linearGradient>
<linearGradient id="paint1_linear_58_24" x1="68.824" y1="29.9925" x2="221.42" y2="160.256" gradientUnits="userSpaceOnUse">
<stop stop-color="#D9AF63"/>
<stop offset="0.53" stop-color="#BF8C4E"/>
<stop offset="1" stop-color="#BF793B"/>
</linearGradient>
<linearGradient id="paint2_linear_58_24" x1="133.966" y1="55.7634" x2="165.41" y2="82.9573" gradientUnits="userSpaceOnUse">
<stop stop-color="#D9AF63"/>
<stop offset="0.53" stop-color="#BF8C4E"/>
<stop offset="1" stop-color="#BF793B"/>
</linearGradient>
<linearGradient id="paint3_linear_58_24" x1="40.8925" y1="56.2935" x2="71.9531" y2="83.4578" gradientUnits="userSpaceOnUse">
<stop stop-color="#D9AF63"/>
<stop offset="0.53" stop-color="#BF8C4E"/>
<stop offset="1" stop-color="#BF793B"/>
</linearGradient>
<linearGradient id="paint4_linear_58_24" x1="85.4897" y1="0.732145" x2="117.564" y2="27.5063" gradientUnits="userSpaceOnUse">
<stop stop-color="#D9AF63"/>
<stop offset="0.53" stop-color="#BF8C4E"/>
<stop offset="1" stop-color="#BF793B"/>
</linearGradient>
<clipPath id="clip0_58_24">
<rect width="207.89" height="154.18" fill="white"/>
</clipPath>
</defs>
</svg>
