<svg width="226" height="32" viewBox="0 0 226 32" fill="none" xmlns="http://www.w3.org/2000/svg">
<g clip-path="url(#clip0_6_998)">
<path d="M224.945 1.88534C223.945 2.11534 222.975 2.55534 222.025 2.92534C221.055 3.30534 220.095 3.68534 219.135 4.08534C217.265 4.86534 215.415 5.69534 213.605 6.60534C209.985 8.41534 206.665 10.6553 203.315 12.9153C201.665 14.0253 199.965 15.0853 198.195 15.9753C196.815 16.2853 195.425 16.5653 194.025 16.7753C189.975 17.4053 185.625 17.6253 181.635 16.5653C179.285 15.9453 177.095 14.8653 174.935 13.7853C174.755 13.6953 174.575 13.6053 174.395 13.5153C176.355 14.0653 178.385 14.3553 180.425 14.2953C182.465 14.2353 184.455 13.7953 186.365 13.0653C187.315 12.6953 188.245 12.2853 189.155 11.8153C190.085 11.3453 191.085 10.8753 191.955 10.2853C192.085 10.1953 192.125 10.0253 192.085 9.88534C192.145 9.79534 192.135 9.65534 192.025 9.58534C191.265 9.05534 190.175 8.90534 189.275 8.74534C188.315 8.57534 187.345 8.47534 186.375 8.43534C184.325 8.35534 182.295 8.60534 180.295 9.01534C176.125 9.86534 171.935 11.2553 167.625 10.5353C163.615 9.08534 159.385 8.18534 155.115 8.14534C157.585 7.05534 160.045 5.97534 162.645 5.23534C166.005 4.27534 169.355 4.03534 172.805 4.53534C172.735 4.94534 172.725 5.37534 172.825 5.78534C172.955 6.27534 173.235 6.84534 173.735 7.03534C173.905 7.10534 174.065 6.93534 174.065 6.77534C174.925 7.16534 175.895 7.23534 176.815 7.02534C177.335 6.90534 177.815 6.68534 178.245 6.37534C178.405 6.26534 178.655 6.10534 178.695 5.89534C178.705 5.83534 178.675 5.76534 178.645 5.70534C178.825 5.66534 178.945 5.51534 178.955 5.33534C179.015 5.29534 179.065 5.20534 179.025 5.12534C178.685 4.36534 177.965 3.78534 177.245 3.42534C176.695 3.14534 176.105 2.97534 175.495 2.92534C175.505 2.92534 175.525 2.91534 175.535 2.90534C175.715 2.81534 175.625 2.54534 175.435 2.53534C175.165 2.53534 174.905 2.56534 174.655 2.67534C174.405 2.77534 174.155 2.89534 173.935 3.04534C173.575 3.28534 173.275 3.58534 173.005 3.91534C169.655 3.05534 165.955 3.58534 162.685 4.52534C159.635 5.40534 156.725 6.71534 153.905 8.16534C149.115 8.31534 144.575 9.65534 140.105 11.2753C138.715 10.1453 137.695 8.73534 136.435 7.47534C135.165 6.19534 133.685 5.13534 132.105 4.26534C128.575 2.32534 124.555 1.36534 120.605 0.705343C120.505 0.685343 120.435 0.755343 120.425 0.825343C120.395 0.855343 120.385 0.895343 120.405 0.945343C120.715 1.76534 121.515 2.48534 122.075 3.14534C122.705 3.88534 123.335 4.62534 123.955 5.36534C125.145 6.77534 126.355 8.19534 127.915 9.21534C129.445 10.2253 131.205 10.9453 132.945 11.4853C133.815 11.7553 134.705 11.9853 135.615 12.1053C136.365 12.2053 137.055 12.1953 137.775 12.1153C135.045 13.1453 132.335 14.2153 129.585 15.1153C125.545 16.4353 121.335 17.3753 117.055 17.1153C116.135 17.0653 115.175 16.9453 114.245 16.7153C115.765 15.8653 117.025 14.4953 117.395 12.7453C117.715 11.2253 117.355 9.60534 115.765 9.03534C114.915 8.73534 114.055 8.89534 113.275 9.30534C112.965 9.47534 113.235 9.90534 113.545 9.76534C114.465 9.35534 115.475 9.45534 116.215 10.1753C116.785 10.7353 116.745 11.6953 116.595 12.4153C116.185 14.3353 114.715 15.6153 112.975 16.3053C112.205 15.9953 111.495 15.5853 110.885 15.0053C110.145 14.3053 109.615 13.4053 109.405 12.4153C109.245 11.6553 109.215 10.6953 109.825 10.1353C110.565 9.44534 111.545 9.35534 112.445 9.76534C112.755 9.90534 113.025 9.46534 112.715 9.30534C111.425 8.61534 109.565 8.76534 108.805 10.1853C107.915 11.8453 108.865 14.0953 110.005 15.3653C110.505 15.9153 111.085 16.3453 111.725 16.6953C107.755 17.7053 103.315 17.0153 99.435 15.9953C95.615 14.9853 91.935 13.5053 88.235 12.1053C88.945 12.1753 89.635 12.1853 90.385 12.0853C91.255 11.9753 92.105 11.7653 92.945 11.5053C94.725 10.9553 96.535 10.2253 98.085 9.19534C99.605 8.19534 100.795 6.81534 101.965 5.43534C102.615 4.66534 103.275 3.89534 103.925 3.11534C104.485 2.45534 105.285 1.72534 105.595 0.915343C105.615 0.865343 105.595 0.825343 105.575 0.795343C105.555 0.725343 105.485 0.655343 105.395 0.675343C101.445 1.32534 97.435 2.28534 93.895 4.23534C92.325 5.10534 90.835 6.16534 89.565 7.44534C88.305 8.71534 87.285 10.1153 85.895 11.2453C82.305 9.94534 78.675 8.80534 74.855 8.33534C73.935 8.22534 73.015 8.16534 72.095 8.13534C69.275 6.68534 66.355 5.37534 63.305 4.49534C60.035 3.55534 56.335 3.01534 52.985 3.88534C52.715 3.55534 52.415 3.25534 52.055 3.01534C51.835 2.86534 51.595 2.75534 51.355 2.65534C51.105 2.54534 50.835 2.50534 50.565 2.51534C50.375 2.51534 50.295 2.78534 50.465 2.88534C50.475 2.88534 50.495 2.89534 50.505 2.90534C49.895 2.95534 49.305 3.12534 48.755 3.40534C48.025 3.77534 47.305 4.34534 46.975 5.10534C46.935 5.18534 46.975 5.27534 47.045 5.31534C47.055 5.49534 47.175 5.64534 47.345 5.68534C47.315 5.74534 47.295 5.81534 47.305 5.88534C47.335 6.08534 47.565 6.23534 47.715 6.33534C48.155 6.65534 48.645 6.88534 49.185 7.01534C50.105 7.23534 51.075 7.15534 51.935 6.76534C51.935 6.92534 52.095 7.09534 52.265 7.02534C52.765 6.82534 53.045 6.26534 53.175 5.77534C53.275 5.36534 53.275 4.94534 53.195 4.52534C56.645 4.02534 59.995 4.26534 63.355 5.22534C65.955 5.96534 68.425 7.05534 70.895 8.13534C67.495 8.16534 64.115 8.73534 60.855 9.69534C60.015 9.94534 59.195 10.2253 58.375 10.5153C54.065 11.2353 49.875 9.85534 45.705 8.99534C43.735 8.59534 41.745 8.34534 39.735 8.41534C38.765 8.44534 37.795 8.54534 36.835 8.71534C35.905 8.87534 34.755 9.02534 33.975 9.57534C33.865 9.64534 33.865 9.78534 33.915 9.87534C33.875 10.0153 33.915 10.1853 34.045 10.2753C34.915 10.8653 35.905 11.3253 36.845 11.8053C37.755 12.2653 38.685 12.6853 39.635 13.0553C41.535 13.7853 43.535 14.2253 45.575 14.2853C47.615 14.3453 49.645 14.0553 51.595 13.5053C50.345 14.1353 49.105 14.7653 47.825 15.3253C45.505 16.3453 43.085 16.9953 40.555 17.1853C38.265 17.3553 35.945 17.2453 33.665 16.9953C31.695 16.7853 29.735 16.4153 27.795 15.9653C24.465 14.2753 21.455 12.0153 18.335 9.98534C14.905 7.75534 11.245 5.92534 7.47501 4.33534C6.45501 3.90534 5.43501 3.48534 4.40501 3.08534C3.31501 2.65534 2.19501 2.13534 1.05501 1.87534C0.725006 1.80534 0.495006 2.26534 0.815006 2.43534C0.855006 2.45534 0.905006 2.47534 0.955006 2.49534C1.78501 4.36534 3.03501 6.05534 4.37501 7.59534C5.74501 9.16534 7.29501 10.5753 8.97501 11.8053C12.475 14.3653 16.535 16.0653 20.825 16.7253C23.305 17.1053 25.825 17.1953 28.325 17.1053C29.635 17.3853 30.955 17.6253 32.275 17.8153C36.625 18.4253 41.245 18.5753 45.485 17.2353C47.845 16.4953 50.055 15.3553 52.255 14.2453C54.565 13.0853 56.915 12.0053 59.365 11.1653C59.555 11.0953 59.745 11.0453 59.935 10.9853C57.505 12.4153 55.155 13.9953 53.135 15.9453C51.795 17.2353 50.635 18.7253 49.745 20.3653C49.285 21.2253 48.895 22.1153 48.585 23.0453C48.285 23.9253 47.945 24.9453 47.935 25.8853C47.935 26.2453 48.435 26.2953 48.545 25.9653C52.395 26.1153 55.525 23.3353 57.505 20.2653C58.645 18.5053 59.525 16.5853 60.445 14.7053C60.915 13.7353 61.405 12.7753 61.945 11.8453C62.335 11.1853 62.765 10.5053 63.365 10.0153C66.965 9.16534 70.665 8.82534 74.355 9.21534C74.425 9.21534 74.485 9.23534 74.555 9.24534C72.465 12.8953 69.505 16.2353 65.955 18.4953C65.755 18.1253 65.485 17.7953 65.145 17.5453C64.945 17.3953 64.725 17.2853 64.495 17.1953C64.255 17.1053 63.945 17.0553 63.705 17.1353C63.515 17.1953 63.465 17.4153 63.585 17.5553C62.695 17.7853 61.905 18.3153 61.335 19.0353C61.015 19.4353 60.785 19.8653 60.625 20.3453C60.555 20.5653 60.415 20.8953 60.525 21.1253C60.555 21.1853 60.615 21.2353 60.685 21.2753C60.575 21.4153 60.575 21.6053 60.685 21.7553C60.645 21.8153 60.655 21.9053 60.735 21.9453C61.485 22.3353 62.395 22.3353 63.205 22.1653C63.815 22.0453 64.385 21.7953 64.895 21.4553V21.4753C64.795 21.6853 65.015 21.8553 65.195 21.7153C65.615 21.3753 65.865 20.8953 66.025 20.3853C66.155 19.9853 66.205 19.5553 66.205 19.1253C67.075 18.7353 67.855 18.1453 68.575 17.5253C69.545 16.6953 70.445 15.7753 71.285 14.8253C72.735 13.1753 74.155 11.3553 75.025 9.31534C75.455 9.37534 75.895 9.42534 76.325 9.50534C76.775 9.73534 77.225 9.97534 77.665 10.2353C77.625 11.9653 78.275 13.6853 78.975 15.2453C79.675 16.8053 80.575 18.2853 81.625 19.6353C83.785 22.4053 86.625 24.6053 89.835 25.9953C91.645 26.7853 93.565 27.2953 95.525 27.5153C95.655 27.5253 95.735 27.4353 95.755 27.3153C95.825 27.2353 95.855 27.1053 95.755 27.0153C94.265 25.5153 93.315 23.5353 92.195 21.7553C91.035 19.9353 89.815 18.1553 88.405 16.5153C85.895 13.5953 82.705 11.1753 78.935 10.1953C78.935 10.1953 78.925 10.1953 78.915 10.1953C78.755 10.1053 78.605 10.0053 78.445 9.91534C83.385 11.0353 88.085 13.0653 92.855 14.8253C92.855 14.8253 92.855 14.8253 92.855 14.8353C93.415 15.5553 93.995 16.2553 94.595 16.9453C94.645 17.7453 95.225 18.6753 95.575 19.3753C96.015 20.2653 96.505 21.1453 97.055 21.9653C98.145 23.6053 99.515 24.9353 101.105 26.0853C102.785 27.2953 104.525 28.4453 106.335 29.4553C107.195 29.9353 108.075 30.3753 108.985 30.7553C109.775 31.0853 110.905 31.6553 111.775 31.5553C111.965 31.5353 112.035 31.3353 111.925 31.2053C111.925 31.1753 111.945 31.1553 111.925 31.1153C111.375 29.3653 110.155 27.7753 109.035 26.3453C107.845 24.8253 106.505 23.4253 105.045 22.1553C102.175 19.6653 98.875 17.7153 95.215 16.6153C95.165 16.5953 95.125 16.6153 95.085 16.6253C94.655 16.1453 94.235 15.6553 93.815 15.1553C96.005 15.9453 98.205 16.6553 100.465 17.1753C102.615 17.6753 104.815 17.9953 107.025 18.0353C109.015 18.0653 111.105 17.9353 112.995 17.2453C113.875 17.5553 114.805 17.7553 115.715 17.8653C117.885 18.1353 120.105 18.0553 122.275 17.7653C125.685 17.3053 128.945 16.3153 132.155 15.1753C131.745 15.6653 131.335 16.1453 130.915 16.6153C130.875 16.6053 130.835 16.5853 130.785 16.6053C127.135 17.7053 123.835 19.6553 120.955 22.1453C119.495 23.4053 118.165 24.8153 116.965 26.3353C115.845 27.7653 114.625 29.3553 114.075 31.1053C114.065 31.1353 114.075 31.1653 114.075 31.1953C113.965 31.3253 114.035 31.5253 114.225 31.5453C115.105 31.6453 116.225 31.0753 117.015 30.7453C117.925 30.3653 118.805 29.9253 119.665 29.4453C121.465 28.4353 123.215 27.2853 124.895 26.0753C126.485 24.9253 127.855 23.5953 128.945 21.9553C129.495 21.1253 129.985 20.2553 130.425 19.3653C130.765 18.6653 131.355 17.7353 131.405 16.9353C131.995 16.2453 132.575 15.5553 133.125 14.8353C137.885 13.0853 142.575 11.0653 147.505 9.91534C147.355 9.99534 147.215 10.0853 147.075 10.1653C147.075 10.1653 147.065 10.1653 147.055 10.1653C143.285 11.1453 140.095 13.5653 137.585 16.4853C136.175 18.1253 134.945 19.9053 133.795 21.7253C132.675 23.4953 131.715 25.4753 130.235 26.9853C130.145 27.0753 130.165 27.2053 130.235 27.2853C130.255 27.3953 130.335 27.4953 130.465 27.4853C137.455 26.6953 143.635 22.1353 146.725 15.8553C147.575 14.1353 148.375 12.1653 148.335 10.2153C148.755 9.97534 149.185 9.73534 149.615 9.51534C150.065 9.43534 150.525 9.37534 150.975 9.32534C151.845 11.3553 153.255 13.1653 154.705 14.8153C155.535 15.7553 156.415 16.6553 157.365 17.4753C158.105 18.1153 158.895 18.7253 159.795 19.1153C159.795 19.5453 159.845 19.9753 159.975 20.3753C160.145 20.8853 160.385 21.3653 160.805 21.7053C160.985 21.8453 161.205 21.6753 161.115 21.4653C161.115 21.4653 161.115 21.4553 161.115 21.4453C161.625 21.7853 162.205 22.0353 162.805 22.1553C163.615 22.3253 164.525 22.3153 165.275 21.9353C165.365 21.8953 165.365 21.8053 165.325 21.7453C165.425 21.5953 165.425 21.4053 165.325 21.2653C165.395 21.2353 165.455 21.1853 165.485 21.1153C165.585 20.8953 165.465 20.5753 165.395 20.3653C165.235 19.8753 165.005 19.4253 164.675 19.0253C164.105 18.3053 163.315 17.7753 162.425 17.5453C162.535 17.4053 162.495 17.1853 162.305 17.1253C162.065 17.0453 161.765 17.0953 161.525 17.1853C161.285 17.2753 161.065 17.3853 160.855 17.5453C160.515 17.8053 160.255 18.1253 160.045 18.4953C156.505 16.2353 153.545 12.9053 151.465 9.26534C155.205 8.86534 158.955 9.14534 162.645 10.0153C163.235 10.5053 163.675 11.1853 164.065 11.8453C164.605 12.7753 165.095 13.7353 165.565 14.7053C166.485 16.5853 167.365 18.5053 168.505 20.2653C170.485 23.3253 173.615 26.1053 177.465 25.9653C177.575 26.2853 178.075 26.2453 178.075 25.8853C178.075 24.9453 177.725 23.9353 177.425 23.0453C177.115 22.1253 176.725 21.2253 176.265 20.3653C175.385 18.7253 174.225 17.2353 172.875 15.9453C170.845 13.9953 168.495 12.4153 166.065 10.9853C167.525 11.4653 168.965 12.0153 170.375 12.6353C172.685 13.6553 174.885 14.8853 177.175 15.9353C179.415 16.9553 181.705 17.7153 184.155 18.0353C186.765 18.3753 189.425 18.2753 192.045 18.0353C193.925 17.8553 195.795 17.5253 197.645 17.1353C202.105 17.2953 206.655 16.8853 210.825 15.2353C214.695 13.7053 218.215 11.2953 221.045 8.24534C222.615 6.55534 224.095 4.63534 225.035 2.51534C225.085 2.49534 225.125 2.47534 225.175 2.45534C225.495 2.28534 225.265 1.81534 224.935 1.89534L224.945 1.88534ZM174.895 3.22534C174.895 3.22534 174.915 3.21534 174.935 3.20534C175.685 3.20534 176.425 3.38534 177.085 3.75534C177.715 4.10534 178.205 4.61534 178.665 5.15534C178.665 5.17534 178.665 5.18534 178.665 5.20534C178.745 5.36534 178.595 5.50534 178.445 5.46534C178.325 5.44534 178.285 5.59534 178.375 5.64534C178.375 5.64534 178.375 5.64534 178.385 5.64534C178.385 5.64534 178.385 5.64534 178.395 5.64534C178.565 5.68534 178.265 5.93534 178.245 5.94534C178.165 6.00534 178.075 6.05534 177.985 6.11534C177.805 6.22534 177.605 6.32534 177.415 6.40534C177.055 6.55534 176.705 6.68534 176.315 6.75534C175.535 6.90534 174.715 6.82534 173.985 6.49534C173.925 6.36534 173.845 6.22534 173.775 6.09534C173.745 6.04534 173.725 5.99534 173.695 5.94534C173.685 5.92534 173.675 5.90534 173.665 5.87534C173.625 5.77534 173.585 5.66534 173.555 5.56534C173.535 5.47534 173.515 5.39534 173.495 5.30534C173.565 5.42534 173.625 5.54534 173.705 5.66534C173.815 5.83534 173.945 5.99534 174.075 6.14534C174.205 6.29534 174.355 6.41534 174.505 6.53534C174.625 6.63534 174.805 6.66534 174.925 6.53534C175.035 6.41534 175.045 6.23534 174.925 6.11534C174.795 5.98534 174.675 5.85534 174.565 5.71534C174.505 5.64534 174.445 5.57534 174.385 5.50534C174.385 5.50534 174.385 5.49534 174.375 5.48534C174.365 5.46534 174.345 5.45534 174.335 5.43534C174.305 5.39534 174.285 5.36534 174.255 5.32534C174.185 5.22534 174.125 5.11534 174.055 5.00534C174.095 5.02534 174.145 5.04534 174.185 5.06534C174.355 5.13534 174.515 5.17534 174.695 5.20534C174.805 5.22534 174.915 5.24534 175.025 5.24534C175.115 5.24534 175.215 5.23534 175.305 5.22534C175.415 5.21534 175.515 5.14534 175.535 5.02534C175.545 4.91534 175.485 4.80534 175.365 4.77534C175.195 4.72534 175.025 4.66534 174.865 4.61534C174.705 4.56534 174.535 4.51534 174.375 4.45534C174.335 4.44534 174.305 4.42534 174.265 4.41534C174.225 4.40534 174.225 4.39534 174.255 4.41534C174.235 4.41534 174.215 4.39534 174.195 4.38534C174.155 4.36534 174.105 4.34534 174.065 4.31534C174.275 4.25534 174.485 4.19534 174.695 4.16534C174.875 4.13534 175.035 4.11534 175.235 4.09534C175.455 4.07534 175.635 4.02534 175.855 3.96534C176.105 3.90534 176.085 3.55534 175.855 3.47534C175.635 3.40534 175.425 3.36534 175.195 3.37534C174.965 3.39534 174.735 3.42534 174.515 3.47534C174.435 3.49534 174.365 3.51534 174.285 3.54534C174.475 3.41534 174.675 3.29534 174.885 3.20534L174.895 3.22534ZM52.355 5.88534V5.90534C52.355 5.92534 52.335 5.94534 52.335 5.95534C52.315 6.00534 52.285 6.05534 52.255 6.10534C52.185 6.23534 52.105 6.37534 52.035 6.51534C51.305 6.84534 50.495 6.92534 49.705 6.77534C49.325 6.70534 48.965 6.57534 48.605 6.42534C48.405 6.34534 48.215 6.24534 48.035 6.13534C47.945 6.08534 47.855 6.02534 47.775 5.96534C47.755 5.95534 47.455 5.69534 47.625 5.66534C47.625 5.66534 47.625 5.66534 47.635 5.66534C47.635 5.66534 47.635 5.66534 47.645 5.66534C47.735 5.61534 47.685 5.46534 47.575 5.48534C47.415 5.51534 47.275 5.37534 47.355 5.22534C47.355 5.20534 47.355 5.18534 47.355 5.17534C47.815 4.63534 48.295 4.12534 48.935 3.77534C49.595 3.40534 50.335 3.22534 51.085 3.22534C51.085 3.22534 51.095 3.22534 51.105 3.23534C51.325 3.33534 51.525 3.45534 51.725 3.58534C51.645 3.56534 51.575 3.53534 51.495 3.51534C51.275 3.46534 51.045 3.42534 50.815 3.41534C50.585 3.40534 50.375 3.44534 50.155 3.51534C49.925 3.58534 49.905 3.93534 50.155 4.00534C50.375 4.06534 50.555 4.10534 50.775 4.13534C50.975 4.15534 51.135 4.16534 51.315 4.20534C51.525 4.24534 51.735 4.29534 51.945 4.35534C51.905 4.37534 51.855 4.40534 51.815 4.42534C51.795 4.42534 51.775 4.44534 51.755 4.45534C51.785 4.44534 51.775 4.45534 51.745 4.45534C51.705 4.46534 51.675 4.48534 51.635 4.49534C51.475 4.55534 51.315 4.60534 51.145 4.65534C50.975 4.70534 50.805 4.76534 50.645 4.81534C50.535 4.84534 50.465 4.95534 50.475 5.06534C50.495 5.18534 50.585 5.25534 50.705 5.26534C50.905 5.28534 51.095 5.28534 51.295 5.25534C51.475 5.22534 51.655 5.18534 51.825 5.11534C51.865 5.09534 51.915 5.07534 51.955 5.05534C51.895 5.16534 51.835 5.27534 51.765 5.37534C51.745 5.40534 51.715 5.44534 51.695 5.47534C51.685 5.49534 51.665 5.51534 51.655 5.53534C51.625 5.57534 51.685 5.50534 51.655 5.53534C51.595 5.60534 51.545 5.67534 51.485 5.74534C51.365 5.88534 51.245 6.02534 51.105 6.15534C50.995 6.26534 50.985 6.46534 51.105 6.57534C51.235 6.69534 51.395 6.67534 51.525 6.57534C51.675 6.45534 51.825 6.33534 51.945 6.19534C52.085 6.03534 52.205 5.87534 52.325 5.70534C52.405 5.59534 52.465 5.46534 52.535 5.34534C52.515 5.43534 52.505 5.51534 52.475 5.60534C52.445 5.70534 52.405 5.80534 52.375 5.90534L52.355 5.88534ZM15.515 14.6953C11.685 13.1953 8.20501 10.8053 5.41501 7.78534C4.02501 6.28534 2.91501 4.61534 1.82501 2.90534C2.40501 3.13534 2.99501 3.33534 3.56501 3.55534C4.53501 3.92534 5.49501 4.30534 6.45501 4.69534C8.41501 5.49534 10.345 6.36534 12.235 7.31534C15.855 9.12534 19.145 11.3953 22.565 13.5553C23.705 14.2753 24.855 14.9453 26.045 15.5653C25.855 15.5153 25.665 15.4753 25.485 15.4253C22.185 14.5753 18.925 13.5453 15.795 12.1953C13.035 11.0053 10.385 9.56534 8.10501 7.57534C7.66501 7.19534 7.19501 6.77534 6.85501 6.29534C6.61501 5.94534 6.03501 6.27534 6.28501 6.63534C7.07501 7.76534 7.88501 8.71534 8.98501 9.55534C10.265 10.5353 11.645 11.3453 13.085 12.0553C16.245 13.6453 19.615 14.8253 23.005 15.8053C24.055 16.1053 25.125 16.3853 26.195 16.6453C22.555 16.5053 18.985 16.0353 15.525 14.6953H15.515ZM45.465 13.5753C43.485 13.4853 41.575 13.0153 39.735 12.2853C38.045 11.6153 36.485 10.6653 34.845 9.91534C35.545 9.79534 36.245 9.56534 36.915 9.44534C37.965 9.26534 39.025 9.15534 40.085 9.12534C42.235 9.06534 44.355 9.39534 46.455 9.84534C49.675 10.5353 52.965 11.4253 56.255 11.2053C56.105 11.2753 55.955 11.3453 55.805 11.4053C52.875 12.0753 49.915 12.2853 46.895 11.9953C45.115 11.8253 43.335 11.5153 41.595 11.1053C39.895 10.6953 38.235 10.1553 36.535 9.73534C36.295 9.67534 36.105 10.0453 36.355 10.1553C39.575 11.6053 43.265 12.3453 46.775 12.6353C48.745 12.7953 50.765 12.7853 52.745 12.5353C50.385 13.2653 47.925 13.6853 45.445 13.5653L45.465 13.5753ZM60.665 12.9853C59.635 14.8653 58.765 16.8353 57.685 18.6853C55.755 21.9953 52.795 25.1753 48.745 25.3053C48.915 24.6253 49.045 23.9153 49.275 23.2453C49.595 22.3153 49.995 21.4053 50.465 20.5453C51.355 18.9353 52.525 17.5053 53.835 16.2253C56.065 14.0453 58.695 12.3853 61.335 10.7553C59.625 12.4353 57.955 14.1453 56.415 15.9953C55.595 16.9853 54.805 17.9853 54.035 19.0153C53.205 20.1353 52.335 21.2653 51.705 22.5253C51.605 22.7353 51.875 22.9853 52.045 22.7853C52.875 21.8153 53.575 20.7453 54.335 19.7153C55.175 18.5753 56.035 17.4553 56.925 16.3553C58.595 14.2953 60.305 12.2453 62.145 10.3453C62.225 10.3253 62.305 10.3053 62.385 10.2753C61.675 11.0753 61.155 12.0853 60.655 12.9853H60.665ZM63.135 21.8153C62.425 21.9453 61.725 21.8453 61.035 21.7153C61.025 21.7053 61.025 21.6953 61.005 21.6853C60.825 21.6053 60.835 21.4053 61.005 21.3253C61.095 21.2753 61.045 21.1153 60.935 21.1453C60.935 21.1453 60.925 21.1553 60.915 21.1553C60.775 21.2253 60.855 20.8153 60.855 20.8053C60.885 20.7053 60.915 20.6153 60.955 20.5153C61.025 20.3153 61.115 20.1353 61.215 19.9453C61.405 19.5853 61.615 19.2453 61.885 18.9453C62.405 18.3553 63.075 17.9253 63.835 17.7253C63.885 17.7453 63.945 17.7753 63.995 17.7953C64.015 17.7953 64.035 17.8153 64.055 17.8153C64.055 17.8153 64.065 17.8153 64.085 17.8253C64.155 17.8553 64.225 17.8853 64.295 17.9153C64.245 17.8953 64.265 17.9053 64.295 17.9153C64.315 17.9253 64.335 17.9353 64.365 17.9453C64.415 17.9653 64.465 17.9953 64.505 18.0253C64.595 18.0753 64.695 18.1353 64.775 18.1953C64.795 18.2053 64.815 18.2253 64.835 18.2353C64.865 18.2653 64.895 18.2853 64.925 18.3153C64.415 18.1053 63.875 17.9853 63.325 17.9853C63.165 17.9853 63.025 18.1253 63.025 18.2853C63.025 18.4553 63.165 18.5653 63.325 18.5853C63.755 18.6253 64.195 18.7453 64.615 18.9053C64.595 18.9053 64.565 18.9053 64.545 18.9253C64.155 19.0453 63.815 19.2453 63.535 19.5353C63.465 19.6053 63.445 19.7253 63.495 19.8153C63.545 19.8953 63.665 19.9653 63.755 19.9253C63.835 19.8953 63.915 19.8653 64.005 19.8353C64.065 19.8153 64.115 19.7953 64.165 19.7653C64.165 19.7653 64.255 19.7253 64.215 19.7453C64.375 19.6753 64.545 19.6153 64.715 19.5653C64.835 19.5253 64.965 19.4953 65.085 19.4653C65.075 19.4853 65.065 19.4953 65.055 19.5153C65.025 19.5553 65.005 19.5953 64.975 19.6253C64.955 19.6453 64.945 19.6653 64.925 19.6853C64.925 19.6853 64.875 19.7553 64.895 19.7253C64.925 19.6953 64.865 19.7553 64.865 19.7653C64.845 19.7853 64.835 19.8053 64.815 19.8253C64.785 19.8653 64.745 19.9053 64.715 19.9453C64.585 20.0953 64.445 20.2353 64.305 20.3753C64.145 20.5253 64.025 20.7053 63.895 20.8753C63.765 21.0453 63.985 21.3253 64.175 21.2453C64.275 21.2053 64.385 21.1653 64.485 21.1153C64.595 21.0553 64.705 20.9653 64.785 20.8853C64.935 20.7453 65.075 20.5853 65.215 20.4253C65.275 20.3453 65.325 20.2653 65.385 20.1853C65.315 20.4253 65.215 20.6453 65.115 20.8753C64.535 21.3453 63.835 21.6653 63.105 21.7953L63.135 21.8153ZM104.605 22.7653C105.975 23.9753 107.255 25.2953 108.395 26.7253C109.465 28.0553 110.285 29.5353 111.275 30.9153C111.035 30.8453 110.795 30.7853 110.565 30.7053C110.105 30.5553 109.655 30.3753 109.205 30.1853C108.325 29.8053 107.475 29.3653 106.655 28.8953C104.955 27.9253 103.315 26.8253 101.715 25.6953C100.085 24.5453 98.685 23.2153 97.555 21.5653C97.035 20.8053 96.565 19.9953 96.145 19.1753C95.965 18.8253 95.785 18.4753 95.615 18.1253C96.915 19.5553 98.285 20.9153 99.735 22.1953C102.205 24.3853 104.855 26.4753 107.795 27.9853C108.025 28.1053 108.195 27.7953 107.995 27.6453C105.285 25.6853 102.535 23.8153 100.025 21.5953C98.535 20.2753 97.115 18.8653 95.755 17.4053C99.005 18.6053 102.015 20.4853 104.605 22.7653ZM89.645 8.42534C90.915 7.02534 92.425 5.88534 94.055 4.95534C97.425 3.03534 101.165 2.08534 104.895 1.15534C104.375 1.61534 103.935 2.24534 103.515 2.74534C102.935 3.41534 102.355 4.09534 101.775 4.76534C100.605 6.12534 99.455 7.54534 97.965 8.57534C95.265 10.4453 91.725 11.5353 88.415 11.7553C88.435 11.7553 88.455 11.7453 88.475 11.7353C89.145 11.5553 89.815 11.3453 90.465 11.1053C91.695 10.6553 92.895 10.0953 94.035 9.43534C96.395 8.07534 98.485 6.35534 100.205 4.24534C100.335 4.08534 100.115 3.84534 99.965 4.00534C98.235 5.97534 96.175 7.69534 93.875 8.96534C92.735 9.59534 91.545 10.1253 90.315 10.5553C89.685 10.7653 89.055 10.9553 88.405 11.1153C87.805 11.2653 87.165 11.3253 86.575 11.5053C86.535 11.4953 86.495 11.4753 86.465 11.4653C87.785 10.8153 88.695 9.46534 89.645 8.41534V8.42534ZM88.295 17.4353C89.685 19.1153 90.895 20.9353 92.045 22.7753C92.595 23.6553 93.115 24.5553 93.675 25.4253C94.015 25.9653 94.385 26.4653 94.845 26.8753C90.855 26.0253 87.135 24.1953 84.175 21.3553C82.685 19.9253 81.415 18.2953 80.405 16.4953C79.425 14.7653 78.415 12.6453 78.295 10.6053C80.525 11.9853 82.525 13.6953 84.115 15.8353C86.105 18.5153 87.365 22.1553 90.435 23.8353C90.575 23.9153 90.735 23.7253 90.605 23.6053C87.865 21.1753 86.515 17.7753 84.285 14.9453C83.235 13.6153 82.005 12.4053 80.635 11.3653C83.655 12.6553 86.195 14.8853 88.295 17.4153V17.4353ZM129.915 19.0953C129.495 19.9153 129.025 20.7253 128.515 21.4853C127.375 23.1753 125.955 24.5353 124.295 25.7053C122.725 26.8053 121.115 27.8853 119.455 28.8453C118.625 29.3253 117.785 29.7653 116.905 30.1453C116.425 30.3553 115.945 30.5453 115.445 30.7053C115.215 30.7853 114.975 30.8353 114.735 30.9153C115.725 29.5353 116.545 28.0553 117.615 26.7253C118.755 25.2953 120.035 23.9753 121.405 22.7653C123.995 20.4853 127.005 18.6053 130.255 17.4053C128.895 18.8653 127.485 20.2753 125.985 21.5953C123.475 23.8153 120.725 25.6853 118.015 27.6453C117.815 27.7953 117.985 28.1053 118.215 27.9853C121.155 26.4753 123.805 24.3853 126.275 22.1953C127.725 20.9153 129.095 19.5453 130.395 18.1253C130.235 18.4453 130.075 18.7653 129.915 19.0853V19.0953ZM161.175 18.2653C161.175 18.2653 161.225 18.2353 161.245 18.2153C161.325 18.1553 161.415 18.1053 161.505 18.0553C161.555 18.0253 161.595 18.0053 161.645 17.9753C161.665 17.9653 161.685 17.9553 161.715 17.9453C161.725 17.9453 161.815 17.9053 161.735 17.9453C161.805 17.9153 161.865 17.8953 161.935 17.8653C161.965 17.8553 162.015 17.8353 161.955 17.8553C161.985 17.8453 162.005 17.8353 162.035 17.8253C162.095 17.8053 162.145 17.7753 162.195 17.7553C162.955 17.9553 163.625 18.3853 164.145 18.9753C164.415 19.2853 164.615 19.6253 164.815 19.9753C164.915 20.1553 165.005 20.3453 165.075 20.5453C165.105 20.6353 165.135 20.7153 165.165 20.8053C165.165 20.8353 165.265 21.2553 165.115 21.1853C165.115 21.1853 165.105 21.1753 165.095 21.1753C164.975 21.1453 164.935 21.3053 165.025 21.3553C165.195 21.4353 165.205 21.6453 165.025 21.7153C165.005 21.7153 165.005 21.7353 164.995 21.7453C164.295 21.8753 163.605 21.9753 162.885 21.8453C162.145 21.7153 161.455 21.3953 160.875 20.9253C160.775 20.6953 160.675 20.4753 160.605 20.2353C160.665 20.3153 160.715 20.3953 160.775 20.4753C160.905 20.6353 161.045 20.7853 161.185 20.9253C161.275 21.0053 161.385 21.0953 161.485 21.1553C161.585 21.2153 161.705 21.2553 161.815 21.2953C162.015 21.3753 162.225 21.0953 162.095 20.9253C161.965 20.7553 161.845 20.5753 161.685 20.4253C161.545 20.2853 161.405 20.1453 161.275 19.9953C161.215 19.9253 161.155 19.8553 161.095 19.7853C161.095 19.7853 161.075 19.7653 161.075 19.7553C161.055 19.7353 161.045 19.7153 161.025 19.6953C160.995 19.6553 160.965 19.6153 160.935 19.5653C160.925 19.5453 160.915 19.5353 160.905 19.5153C161.035 19.5453 161.155 19.5753 161.275 19.6153C161.435 19.6653 161.595 19.7253 161.755 19.7953C161.775 19.7953 161.775 19.7953 161.755 19.7953C161.775 19.7953 161.795 19.8153 161.815 19.8253C161.865 19.8453 161.925 19.8753 161.975 19.8953C162.055 19.9253 162.145 19.9553 162.225 19.9853C162.315 20.0253 162.435 19.9553 162.485 19.8753C162.535 19.7853 162.525 19.6653 162.445 19.5953C162.155 19.3053 161.825 19.1153 161.435 18.9853C161.415 18.9853 161.385 18.9853 161.365 18.9653C161.785 18.8053 162.225 18.6853 162.655 18.6453C162.815 18.6253 162.955 18.5253 162.955 18.3453C162.955 18.1853 162.815 18.0553 162.655 18.0453C162.105 18.0453 161.565 18.1653 161.055 18.3753C161.085 18.3453 161.115 18.3253 161.145 18.2953C161.115 18.3153 161.195 18.2453 161.145 18.2953L161.175 18.2653ZM128.045 8.58534C126.595 7.58534 125.455 6.19534 124.315 4.86534C123.705 4.15534 123.105 3.45534 122.495 2.74534C122.075 2.25534 121.625 1.61534 121.115 1.15534C124.845 2.08534 128.585 3.03534 131.955 4.95534C133.555 5.87534 135.045 6.99534 136.295 8.35534C137.285 9.42534 138.205 10.8253 139.555 11.4853C139.515 11.4953 139.475 11.5153 139.445 11.5253C138.855 11.3353 138.205 11.2753 137.605 11.1253C136.995 10.9753 136.385 10.8053 135.795 10.5953C134.525 10.1653 133.305 9.62534 132.135 8.97534C129.835 7.70534 127.785 5.98534 126.045 4.01534C125.905 3.85534 125.675 4.08534 125.805 4.25534C127.525 6.36534 129.615 8.08534 131.975 9.44534C133.115 10.1053 134.315 10.6553 135.545 11.1153C136.165 11.3453 136.795 11.5453 137.435 11.7153C137.485 11.7253 137.535 11.7453 137.585 11.7553C134.275 11.5353 130.745 10.4453 128.045 8.57534V8.58534ZM145.615 16.5253C144.605 18.3153 143.335 19.9553 141.845 21.3853C138.885 24.2253 135.165 26.0453 131.185 26.8953C132.375 25.8453 133.105 24.1853 133.915 22.8853C135.085 21.0053 136.305 19.1553 137.725 17.4453C139.815 14.9253 142.365 12.6953 145.385 11.3953C144.025 12.4353 142.785 13.6453 141.735 14.9753C139.505 17.8053 138.165 21.2053 135.415 23.6353C135.285 23.7453 135.445 23.9353 135.585 23.8653C138.645 22.1853 139.915 18.5453 141.905 15.8653C143.495 13.7253 145.495 12.0153 147.725 10.6353C147.605 12.6753 146.595 14.7953 145.615 16.5253ZM179.545 9.86534C181.605 9.42534 183.685 9.10534 185.805 9.14534C186.875 9.16534 187.935 9.27534 188.985 9.44534C189.695 9.56534 190.435 9.81534 191.165 9.93534C189.555 10.6753 188.035 11.5953 186.385 12.2553C184.515 13.0053 182.565 13.4853 180.555 13.5853C178.075 13.7053 175.625 13.2853 173.255 12.5553C175.235 12.8053 177.255 12.8153 179.225 12.6553C182.735 12.3653 186.425 11.6253 189.645 10.1753C189.895 10.0653 189.715 9.68534 189.465 9.75534C187.775 10.1853 186.105 10.7253 184.405 11.1253C182.665 11.5453 180.895 11.8453 179.105 12.0153C176.085 12.2953 173.125 12.0853 170.195 11.4253C170.045 11.3553 169.895 11.2953 169.745 11.2253C173.035 11.4453 176.335 10.5553 179.545 9.86534ZM175.555 20.5753C176.035 21.4353 176.435 22.3353 176.745 23.2753C176.975 23.9453 177.095 24.6553 177.275 25.3353C173.215 25.2053 170.265 22.0253 168.335 18.7153C167.275 16.8953 166.415 14.9653 165.405 13.1153C164.895 12.1853 164.365 11.1253 163.625 10.3053C163.705 10.3253 163.785 10.3453 163.865 10.3753C165.715 12.2853 167.425 14.3253 169.095 16.3853C169.965 17.4553 170.805 18.5453 171.625 19.6553C172.405 20.7153 173.125 21.8153 173.985 22.8153C174.155 23.0053 174.425 22.7653 174.325 22.5553C173.715 21.3353 172.875 20.2353 172.065 19.1353C171.275 18.0753 170.465 17.0353 169.615 16.0253C168.075 14.1753 166.415 12.4653 164.695 10.7853C167.335 12.4153 169.975 14.0753 172.195 16.2553C173.505 17.5453 174.675 18.9653 175.565 20.5753H175.555ZM221.095 7.23534C219.745 8.78534 218.215 10.1853 216.555 11.3853C213.145 13.8553 209.195 15.5153 205.045 16.2153C203.295 16.5053 201.535 16.6253 199.765 16.6753C200.015 16.6153 200.255 16.5653 200.505 16.4953C203.965 15.6253 207.385 14.5253 210.665 13.1153C213.465 11.9153 216.565 10.4453 218.625 8.12534C219.045 7.65534 219.385 7.14534 219.745 6.63534C219.995 6.28534 219.415 5.95534 219.175 6.29534C218.465 7.30534 217.325 8.14534 216.335 8.85534C215.105 9.74534 213.785 10.4953 212.435 11.1653C209.395 12.6853 206.165 13.8253 202.905 14.7653C201.935 15.0453 200.955 15.3053 199.965 15.5553C202.695 14.1253 205.225 12.3453 207.825 10.6853C211.295 8.47534 214.965 6.62534 218.745 5.02534C219.825 4.56534 220.915 4.13534 222.015 3.70534C222.725 3.42534 223.475 3.18534 224.185 2.89534C223.235 4.39534 222.275 5.86534 221.095 7.20534V7.23534Z" fill="#BF8C4E"/>
</g>
<defs>
<clipPath id="clip0_6_998">
<rect width="224.67" height="30.88" fill="white" transform="translate(0.665009 0.705322)"/>
</clipPath>
</defs>
</svg>
