<svg width="141" height="101" viewBox="0 0 141 101" fill="none" xmlns="http://www.w3.org/2000/svg">
<path opacity="0.1" d="M90.5805 24.2568C90.3005 24.5171 89.9705 24.6659 89.5105 24.5791C88.5605 24.3932 87.7505 23.3396 87.1405 22.4844C85.5405 20.2781 83.8405 18.4933 81.7805 16.9563C79.1805 15.0227 76.3705 13.5602 73.6705 11.8745C68.3005 8.52789 62.8105 5.29286 56.9905 3.3097C52.7705 1.87191 48.4705 1.14062 44.1505 1.61162C41.9805 1.84712 39.8105 2.91307 37.6805 2.91307C35.4405 2.91307 33.1605 1.63641 30.9605 1.1778C29.2505 0.818354 26.0805 -0.569858 24.3705 0.26059C20.3005 2.24375 22.2505 8.78818 21.7505 12.928C21.6305 13.932 21.3905 14.9608 20.8105 15.6673C19.8105 16.9067 18.1105 16.8076 16.8605 15.9895C15.6105 15.1715 14.6605 13.8081 13.6205 12.6182C12.3305 11.1308 9.99053 9.14763 8.32053 10.9201C7.11053 12.2091 6.13053 14.0683 4.74053 15.0599C3.43053 16.0019 1.17053 15.1591 0.350532 16.9067C-1.43947 20.7119 4.12053 25.174 5.88053 27.4423C9.73053 32.4002 12.2305 38.7339 16.1405 43.5307C19.0505 47.1004 23.0205 46.5922 26.6705 48.0424C29.0505 48.9844 30.8505 51.3642 32.5405 53.6448C37.2205 59.6687 41.4805 66.2255 46.2105 72.1626C49.1705 75.881 52.3205 79.3639 55.5005 82.7849C57.0605 84.4582 58.6305 86.1191 60.1905 87.78C61.3405 89.007 62.8705 91.8826 64.6705 90.9158C65.2605 90.5936 65.7005 89.9366 66.2905 89.602C67.2305 89.0814 68.3305 89.5276 69.2705 90.0854C70.8705 91.0274 72.3105 91.4488 74.0905 91.1761C75.9605 90.891 77.6905 89.8623 79.4605 89.0442C83.6105 87.123 87.3705 88.3005 91.0305 91.1761C92.4505 92.2916 94.1205 93.2708 95.7505 92.775C97.2505 92.3164 98.3205 90.7423 99.4405 89.4285C100.571 88.1146 102.121 86.9495 103.581 87.5692C105.291 88.3005 105.951 91.077 107.621 91.9074C108.981 92.5767 110.481 91.7215 111.901 91.3125C116.251 90.0482 119.681 93.6427 123.291 95.9729C127.551 98.7121 133.181 101.191 138.071 100.633C138.511 100.584 138.971 100.485 139.331 100.162C139.891 99.6665 140.101 98.7121 139.981 97.8693C139.631 95.4771 137.521 94.3368 136.301 92.7255C130.591 85.2266 127.621 75.5091 124.671 66.0396C122.771 59.9413 120.661 53.7811 117.361 48.6249C114.791 44.5966 111.071 41.4855 106.991 40.2089C105.001 39.5768 103.851 39.0562 102.921 36.6764C102.101 34.5569 101.841 32.1647 101.011 30.0576C99.5505 26.302 97.3305 22.9554 93.8605 22.1497C93.1905 21.9886 92.4305 21.9514 91.8705 22.5216C91.3705 23.0298 91.0605 23.823 90.5805 24.2692V24.2568Z" fill="url(#paint0_linear_47_298)"/>
<defs>
<linearGradient id="paint0_linear_47_298" x1="-12.7251" y1="2.7755" x2="107.397" y2="145.515" gradientUnits="userSpaceOnUse">
<stop stop-color="#D9AF63"/>
<stop offset="0.53" stop-color="#BF8C4E"/>
<stop offset="1" stop-color="#BF793B"/>
</linearGradient>
</defs>
</svg>
